<svg width="45" height="50" viewBox="0 0 45 50" fill="none" xmlns="http://www.w3.org/2000/svg">
<path d="M2.97515 6.01808C1.94325 6.93528 1.2303 8.1087 0.761615 9.31921C-0.578349 12.78 1.07609 17.6802 4.78609 17.5868C5.19587 17.5765 5.62339 17.5029 6.0653 17.3486C9.67048 16.0896 9.15546 13.5717 9.92799 12.8163C12.2279 10.5675 15.4646 9.3217 18.669 9.04178C21.582 8.7873 25.1066 9.17002 27.1813 11.0538C30.0655 13.6724 29.4131 16.1735 28.7264 17.0968C27.9539 18.4396 25.6363 21.2261 22.5461 21.629C19.456 22.0319 18.1684 22.6362 17.9109 22.888C17.4817 23.1398 16.8808 24.0462 17.9109 25.6577C18.9409 27.2691 21.2585 27.1684 22.2886 26.9166C25.9968 26.7152 28.6406 28.6792 29.499 29.6863C30.529 30.6935 32.0741 33.3121 30.014 35.7294C27.9539 38.1466 23.4903 39.5902 21.5161 40.0098C17.1898 41.2184 15.2499 40.1777 14.8207 39.5062C13.5847 37.089 12.0739 36.3169 11.4731 36.2329C10.8722 36.0651 9.10395 36.0819 6.83784 37.4919C4.57173 38.9019 4.0052 40.7652 4.0052 41.5206C3.91937 42.6117 4.67474 45.3982 8.38292 47.8154C12.0911 50.2326 19.7135 50.1654 23.0611 49.8297C28.8294 49.2254 34.0483 45.885 35.9368 44.2903C37.5677 43.1992 41.0355 39.8084 41.8596 34.974C42.6836 30.1396 40.3145 26.7488 39.0269 25.6577C43.0071 22.7388 45.785 18.0764 44.4625 13.3211C44.2162 12.4354 43.8722 11.506 43.4046 10.5502C41.1385 5.91721 35.0784 2.74473 32.3316 1.73762C24.0912 -1.28389 15.3358 0.310796 11.9881 1.48582C10.3572 1.90548 6.11776 3.22478 2.97515 6.01808Z" fill="#7872B9"/>
</svg>
