<svg width="42" height="50" viewBox="0 0 42 50" fill="none" xmlns="http://www.w3.org/2000/svg">
<path d="M28.3423 49.9976C27.5172 49.944 26.7471 47.7971 26.032 43.5571C23.4192 43.7449 20.7238 43.7986 17.946 43.7181C15.1956 43.6107 12.7341 43.3692 10.5613 42.9935C10.3963 42.9667 10.2175 42.9398 10.025 42.913C9.83248 42.8593 9.66746 42.8191 9.52994 42.7922C8.73234 42.7654 7.98975 42.6446 7.30216 42.43C6.50456 42.2153 5.81698 41.7054 5.2394 40.9003C4.46931 39.9074 3.78172 38.5522 3.17665 36.8347C2.46156 34.9294 1.82898 32.4202 1.27891 29.3073C0.728841 26.1675 0.385048 23.9938 0.247531 22.7862C0.110014 21.5786 0.0275034 19.3512 0 16.1041C0 12.857 0.206276 10.16 0.618827 8.01315C0.783848 6.91288 1.07263 5.77236 1.48519 4.59159C1.92524 3.38398 2.65408 2.43132 3.67171 1.73359C4.22178 1.35789 5.1844 0.982187 6.55957 0.606487C7.96224 0.230787 8.96612 0.0295193 9.57119 0.00268357C10.2038 -0.0241522 11.0839 0.15028 12.2115 0.52598C13.3392 0.874845 13.9442 1.58599 14.0267 2.65942C14.0543 3.24981 13.9992 3.86703 13.8617 4.51109C13.7242 5.12831 13.6004 5.71869 13.4904 6.28224C12.5278 10.9248 12.0603 15.0039 12.0878 18.5193C12.1428 22.0348 12.7066 26.9457 13.7792 33.2521C16.7771 33.279 20.215 33.118 24.093 32.7691C23.5704 24.0475 23.3092 19.3915 23.3092 18.8011C23.2542 17.2446 24.3268 16.4127 26.5271 16.3054C28.7548 16.198 30.2813 16.4261 31.1064 16.9897C31.8765 17.4459 32.8666 22.3837 34.0768 31.803C34.7368 31.5883 35.3969 31.3468 36.057 31.0784C36.5246 30.9174 37.0196 30.743 37.5422 30.5552C38.0923 30.3405 38.6286 30.2063 39.1511 30.1526C41.1039 29.9379 42.0527 30.9979 41.9977 33.3326C41.9702 35.6405 41.709 37.3178 41.2139 38.3643C40.7463 39.3036 40.0175 40.0416 39.0274 40.5783C38.0372 41.115 37.0746 41.5444 36.1395 41.8664C36.002 41.9201 35.8782 41.9738 35.7682 42.0274C35.6582 42.0543 35.5344 42.0811 35.3969 42.1079C35.3969 44.228 35.2869 45.5563 35.0669 46.093C34.8468 46.6029 34.6131 47.0994 34.3655 47.5824C34.228 47.8776 33.7467 48.2131 32.9216 48.5888C32.124 48.9645 31.5877 49.2328 31.3127 49.3938C30.1575 49.8232 29.1674 50.0245 28.3423 49.9976Z" fill="#7872B9"/>
</svg>
