<svg width="44" height="50" viewBox="0 0 44 50" fill="none" xmlns="http://www.w3.org/2000/svg">
<path d="M43.9086 41.2688C43.7728 39.8993 43.5329 38.7594 43.1889 37.849C43.1015 37.6686 43.0214 37.5291 42.9486 37.4303C42.904 37.3157 42.8306 37.2173 42.7284 37.135C42.7138 37.1233 42.6987 37.1119 42.6829 37.1008L42.4391 36.8936C42.3494 36.8542 42.2355 36.8335 42.0974 36.8313C42.0868 36.8298 42.0756 36.8286 42.0638 36.8277C41.9814 36.8217 41.8702 36.8318 41.7303 36.8581C41.722 36.8597 41.7137 36.8613 41.7055 36.8629C41.5824 36.8877 41.4732 36.9222 41.3778 36.9665C41.2505 37.015 41.1238 37.0629 40.9977 37.1102C39.1071 37.8194 37.3612 38.3903 35.76 38.8228C34.0737 39.252 32.1717 39.5531 30.0539 39.7261C26.5941 40.4041 24.1166 40.7992 22.6215 40.9114C21.1264 41.0236 19.6349 41.0789 18.1469 41.0773C16.5791 41.0907 15.4 41.0452 14.6099 40.9406C12.9813 40.7687 12.2318 40.1225 12.3615 39.0019C12.5178 37.8763 12.9285 36.6326 13.5935 35.2709C13.6244 35.2124 13.6559 35.154 13.6882 35.0955C14.1719 34.2191 14.8143 33.3498 15.6154 32.4879C16.349 31.816 17.2582 31.1252 18.3431 30.4154C19.1859 29.8917 20.2153 29.3329 21.4312 28.7391C22.1651 28.3764 24.2689 27.5877 27.7428 26.373C29.2372 25.6425 30.3441 25.0551 31.0634 24.6108C32.2331 23.9132 33.2417 23.1616 34.089 22.356C34.2191 22.2366 34.3465 22.1165 34.4712 21.9956C35.344 21.1492 36.0831 20.2632 36.6886 19.3379C37.6201 17.9261 38.2341 16.4335 38.5305 14.8599C39.2054 11.2477 38.7143 8.58531 37.0574 6.87275C35.4222 5.12798 33.1232 3.52197 30.1604 2.05472C28.2038 1.12927 26.1651 0.514372 24.0444 0.210032C21.9818 -0.0771271 19.8481 -0.06983 17.6431 0.231924C17.5073 0.25217 17.3715 0.273402 17.2357 0.295619C15.1985 0.628872 13.1648 1.18383 11.1346 1.96048C11.0306 2.00461 10.9278 2.04912 10.8261 2.09401C9.30198 2.76736 8.04733 3.52596 7.0622 4.3698C6.65787 4.72684 6.29839 5.10356 5.98377 5.49996C5.95711 5.50497 5.94866 5.53467 5.95841 5.58905C5.95508 5.58968 5.95179 5.59051 5.94853 5.59157C5.92574 5.59892 5.90482 5.61668 5.88577 5.64486L5.84579 5.65237L5.77315 5.70818C5.75625 5.76757 5.75023 5.81086 5.75511 5.83805C5.75511 5.83805 5.75511 5.83805 5.75511 5.83805C5.10895 6.69025 4.62546 7.83514 4.30464 9.27272C3.97895 10.6831 4.26364 11.8102 5.15873 12.654C5.16361 12.6811 5.1818 12.7058 5.21332 12.728C5.21333 12.728 5.21332 12.728 5.21332 12.728L5.22065 12.7688L5.26062 12.7613L5.27525 12.8429L5.31523 12.8354C5.66202 13.0794 5.98086 13.2444 6.27175 13.3303C7.03294 13.5808 8.76416 13.3259 11.4654 12.5655C14.1618 11.7779 15.8915 11.2843 16.6547 11.0848C17.5245 10.8652 18.3724 10.6778 19.1986 10.5226C19.2559 10.5153 19.3127 10.5086 19.3692 10.5022C20.2158 10.4074 20.972 10.4161 21.6377 10.5282C21.7109 10.5426 21.7824 10.5585 21.8523 10.576C22.9002 10.8387 23.5757 11.4554 23.8789 12.4262C24.1974 13.4344 24.0093 14.3833 23.3148 15.2727C23.0231 15.6437 22.6564 16.0139 22.2147 16.3832C20.8895 17.4912 18.8889 18.5917 16.2128 19.6846C12.6399 21.1147 10.0457 22.3188 8.43034 23.2968C7.19525 24.091 6.03784 25.0112 4.95811 26.0572C3.90502 27.0983 3.08595 28.2922 2.50089 29.6388C1.45168 32.0846 0.662637 35.3669 0.133753 39.4858C-0.373354 43.5725 0.561509 46.5591 2.93834 48.4456C4.03949 49.3631 6.48639 49.8732 10.279 49.9759C14.0668 50.0514 18.1258 49.9495 22.4561 49.6701C22.7281 49.6507 22.9991 49.6308 23.2693 49.6106C27.3214 49.3073 31.1648 48.9197 34.7993 48.4477C38.6762 47.9444 41.2785 47.5539 42.6062 47.2764L42.6461 47.2689C42.6364 47.2145 42.6582 47.1823 42.7115 47.1723L42.7768 47.0757C42.7719 47.0485 42.7828 47.0324 42.8095 47.0274L42.8821 46.9716C42.8835 46.9696 42.8848 46.9676 42.8862 46.9657C42.9069 46.9371 42.9298 46.9205 42.9548 46.9158L42.9401 46.8342L43.0128 46.7784C43.3879 46.2582 43.6321 45.7766 43.7456 45.3337C44.0014 44.3019 44.0643 43.0392 43.9343 41.5458C43.9262 41.4524 43.9176 41.3601 43.9086 41.2688Z" fill="#7872B9"/>
</svg>
