<svg width="199" height="170" viewBox="0 0 199 170" fill="none" xmlns="http://www.w3.org/2000/svg">
<g clip-path="url(#clip0_9_4967)">
<path fill-rule="evenodd" clip-rule="evenodd" d="M95.6891 170C147.706 170 190.112 165.448 190.112 159.598C190.112 153.749 147.706 149.197 95.6891 149.197C43.6718 149.197 1.28906 153.862 1.28906 159.598C1.28906 165.334 43.6944 170 95.6891 170Z" fill="#DFEBFF"/>
<path fill-rule="evenodd" clip-rule="evenodd" d="M169.055 98.5994C173.443 96.6875 176.564 94.73 181.449 94.8438C183.195 94.8894 184.927 95.1571 186.606 95.6405C189.048 97.2337 189.523 98.6904 193.391 100.033C194.951 100.58 196.308 100.671 193.526 101.718C192.451 102.03 191.313 102.05 190.228 101.774C189.143 101.498 188.15 100.936 187.352 100.147C188.751 101.429 189.755 103.088 190.247 104.927C191.251 104.724 192.277 104.648 193.3 104.699C194.386 102.105 193.3 102.423 195.901 101.627C195.976 103.178 195.73 104.728 195.177 106.179L192.916 107.339C194.454 108.068 195.72 107.339 196.76 107.817C197.572 108.127 198.273 108.674 198.773 109.388C199.474 110.48 198.773 110.48 197.891 110.185C197.459 110.02 196.993 109.965 196.534 110.025C197.174 110.48 197.656 111.125 197.914 111.869C198.728 114.145 197.371 113.075 196.398 112.506C191.038 109.433 189.614 110.776 185.407 109.16C182.995 107.914 180.815 106.258 178.961 104.267C176.7 102.241 176.451 103.152 173.918 105.337C170.692 108.293 167.739 111.538 165.098 115.033L169.055 98.5994Z" fill="#FFDDDE"/>
<path fill-rule="evenodd" clip-rule="evenodd" d="M101.096 159.325C98.5634 162.238 77.6887 167.132 73.1428 167.132C70.8295 167.124 68.5774 166.383 66.7059 165.014C64.8345 163.646 63.4388 161.719 62.7168 159.507C60.8848 152.679 59.4374 150.403 66.6746 151.814C72.6227 153.089 77.9827 155.729 87.0292 155.638C91.0096 155.638 94.9449 152.611 96.822 152.542C97.2517 152.497 99.5133 158.779 100.938 159.325C101.074 159.325 101.142 159.325 101.096 159.325Z" fill="#FCD2D3"/>
<path fill-rule="evenodd" clip-rule="evenodd" d="M100.419 155.001C117.178 155.001 130.838 148.172 130.838 139.751C130.838 131.329 117.268 124.501 100.419 124.501C83.5699 124.501 70.1133 131.352 70.1133 139.751C70.1133 148.15 83.683 155.001 100.419 155.001Z" fill="#7872B8" stroke="black" stroke-width="0.22" stroke-miterlimit="22.93"/>
<path fill-rule="evenodd" clip-rule="evenodd" d="M96.5052 152.838C93.3615 155.911 99.6488 163.718 103.946 163.627C113.648 159.894 148.093 149.971 151.96 141.777C154.285 136.702 154.773 130.969 153.34 125.571C150.761 116.808 142.213 119.016 134.84 121.201C128.371 123.113 103.403 146.83 96.5052 152.838Z" fill="#4B4680"/>
<path fill-rule="evenodd" clip-rule="evenodd" d="M89.1553 159.325C91.6883 162.238 112.563 167.132 117.109 167.132C119.422 167.124 121.674 166.383 123.546 165.014C125.417 163.646 126.813 161.719 127.535 159.507C129.367 152.679 130.814 150.403 123.577 151.814C117.629 153.089 112.269 155.729 103.223 155.638C99.2195 155.638 95.3069 152.611 93.4297 152.542C92.9096 152.542 90.6932 158.71 89.2457 159.166C89.1779 159.325 89.11 159.325 89.1553 159.325Z" fill="#FFDDDE"/>
<path fill-rule="evenodd" clip-rule="evenodd" d="M98.7645 152.315C101.908 155.365 95.6434 163.172 91.3237 163.081C81.6214 159.348 47.1769 149.424 43.3321 141.23C40.9902 136.169 40.4938 130.44 41.9299 125.048C44.5082 116.262 53.0571 118.47 60.43 120.655C66.8982 122.567 91.8665 146.306 98.7645 152.315Z" fill="#958FD3"/>
<path fill-rule="evenodd" clip-rule="evenodd" d="M29.9451 100.511C25.5576 98.5994 22.4592 96.6647 17.5515 96.7558C15.8052 96.8092 14.0726 97.0845 12.395 97.5752C9.95241 99.1457 9.47747 100.602 5.6101 101.945C4.02696 102.514 2.69261 102.583 5.4744 103.63C6.53758 103.935 7.66191 103.952 8.734 103.68C9.80608 103.409 10.788 102.857 11.5808 102.082C10.1863 103.402 9.20404 105.103 8.75375 106.975C7.75245 106.75 6.72387 106.674 5.70056 106.748C4.61498 104.153 5.70056 104.472 3.12231 103.652C3.03118 105.203 3.27022 106.755 3.82342 108.204L6.08504 109.365C4.54713 110.071 3.28063 109.365 2.24028 109.82C1.43524 110.153 0.738211 110.705 0.227439 111.414C-0.473664 112.506 0.227439 112.483 1.10947 112.188C1.55229 112.034 2.02315 111.979 2.48906 112.028C1.87316 112.468 1.40713 113.088 1.1547 113.804C0.363136 116.08 1.69749 115.01 2.69261 114.464C8.05265 111.368 9.47747 112.734 13.6615 111.095C16.0749 109.888 18.2631 108.271 20.1297 106.315C22.3913 104.29 22.6175 105.177 25.1731 107.385C28.365 110.306 31.2939 113.505 33.9256 116.945L29.9451 100.511Z" fill="#FFDDDE"/>
<path fill-rule="evenodd" clip-rule="evenodd" d="M29.7873 100.147C36.0746 102.765 48.3778 103.88 49.5991 103.038C53.1273 92.8184 67.5338 58.9049 77.6884 58.7C89.8333 58.4724 104.828 59.178 116.973 59.178C127.535 59.178 143.569 93.7971 146.374 103.061C146.481 103.836 146.888 104.536 147.507 105.01C148.125 105.483 148.905 105.691 149.676 105.587C152.955 105.337 172.744 95.8911 174.554 96.4828C178.466 97.4615 174.78 110.39 169.058 115.556C166.14 118.174 147.052 120.655 143.411 120.108C137.214 119.312 132.216 114.441 122.695 104.586C122.695 114.464 130.339 127.346 121.157 131.899C116.181 134.425 87.617 137.156 79.9275 134.471C67.6695 130.214 76.4446 122.658 76.4446 115.488C76.4446 113.94 76.2184 101.081 75.1102 101.513C72.1249 102.605 68.5063 118.128 54.2807 120.2C51.7703 120.564 49.0563 120.564 44.8497 121.133C27.4805 123.432 17.1901 94.8441 29.7873 100.147Z" fill="#FFCE70"/>
<path fill-rule="evenodd" clip-rule="evenodd" d="M74.4997 38.1242C74.3448 40.0103 73.773 41.8378 72.8261 43.473C70.0669 47.5016 74.1604 49.6411 72.8261 54.603C72.0119 57.7895 74.8163 60.2021 78.2992 58.8365C85.084 56.1507 88.2051 59.5876 91.2809 55.9686C93.8365 52.9414 97.8396 55.4679 100.938 57.266C104.036 59.0641 108.085 57.6984 111.364 58.1536C114.282 58.5406 116.385 60.2021 116.068 66.871C115.774 72.9026 109.6 73.244 114.734 77.5458C116.068 78.6611 117.47 79.8219 116.996 81.5744C116.593 83.1623 115.817 84.6298 114.734 85.8535C112.472 88.6075 116.996 92.181 118.624 90.6332C119.438 89.8366 120.478 86.8777 123.735 87.9019C126.381 88.7213 125.59 84.6016 125.273 81.9159C124.956 79.2301 126.019 79.5032 127.829 77.3637C130.452 74.2227 126.019 75.5201 128.394 67.5083C130.022 62.023 123.373 58.7454 124.007 56.1279C125.25 50.8475 122.536 50.0508 121.225 47.2513C118.556 41.4245 124.934 39.8085 118.036 32.2292C117.086 31.1594 116.543 29.0654 116.543 24.536C116.543 13.315 115.073 17.1615 110.867 13.1557C108.153 10.3788 106.569 3.16369 98.3824 5.69013C92.276 7.55651 96.3017 6.9875 89.1097 7.16958C82.6189 7.32891 81.8499 13.9978 80.787 14.5441C77.2362 16.6381 76.2637 18.3223 76.2637 19.8928C76.2637 21.4633 77.0327 23.7849 77.0101 25.6058C77.0101 26.2658 74.7484 28.4281 73.6855 30.1579C72.6225 31.8878 74.6354 34.4597 74.4997 38.1242Z" fill="#4B4680"/>
<path fill-rule="evenodd" clip-rule="evenodd" d="M91.1689 50.0735C90.9909 52.0385 90.5965 53.9775 89.9928 55.8548C88.4097 58.882 80.6523 56.5376 80.6523 59.0413C80.6523 63.4796 92.8877 77.6596 98.7453 77.2499C105.123 76.7491 111.931 68.1456 113.898 62.6602C114.78 60.2248 114.735 59.7924 114.034 59.1551C112.496 57.7212 108.086 58.5405 106.322 56.5376C105.165 54.4519 104.573 52.0976 104.603 49.7094C106.936 47.7377 108.799 45.2642 110.056 42.4713C111.312 39.6783 111.93 36.6371 111.863 33.572C111.864 32.7053 111.819 31.8391 111.727 30.9773C110.77 30.9388 109.825 30.7547 108.923 30.431C105.01 29.0199 105.394 27.9046 103.698 24.7408C102.929 23.2841 101.934 22.1689 100.509 22.9427C99.7414 23.3775 98.8917 23.6462 98.0147 23.7316C97.1376 23.817 96.2525 23.7173 95.416 23.4388C94.5794 23.1603 93.8098 22.7092 93.1564 22.1142C92.5029 21.5193 91.9801 20.7937 91.6212 19.9838C90.8522 18.5727 89.156 20.5756 87.4146 22.2599C83.9091 25.7878 83.3211 28.2005 83.3211 33.5037C83.2295 36.6941 83.8934 39.8606 85.258 42.7418C86.6226 45.6229 88.6487 48.136 91.1689 50.0735Z" fill="#FCD2D3"/>
<path fill-rule="evenodd" clip-rule="evenodd" d="M106.297 6.60066C122.581 9.69613 114.869 14.6124 112.562 17.799C120.455 21.4179 126.697 17.1616 121.609 27.5861C118.94 33.0486 134.093 42.2895 120.907 49.3226C120.681 58.9049 124.571 52.1449 117.221 61.0899C117.053 61.5262 116.723 61.8796 116.301 62.075C115.879 62.2705 115.398 62.2927 114.959 62.1369C114.522 61.9726 114.165 61.6424 113.967 61.217C113.768 60.7915 113.743 60.3047 113.896 59.8608C115.502 56.6743 118.759 57.084 118.103 53.6699C115.706 41.106 123.87 49.1177 122.445 39.8541C120.975 30.158 114.009 39.581 119.935 23.2615L116.362 22.078C100.915 18.2086 112.336 16.7064 112.72 12.4047C112.11 11.1528 106.772 10.3334 105.732 10.1286C105.309 10.0097 104.944 9.73823 104.708 9.36597C104.471 8.99371 104.379 8.54675 104.449 8.11042C104.519 7.67409 104.746 7.27896 105.087 7.00048C105.428 6.722 105.859 6.57967 106.297 6.60066Z" fill="#4B4680"/>
<path fill-rule="evenodd" clip-rule="evenodd" d="M14.2703 70.8769C15.763 70.6948 18.0246 71.4459 18.2282 73.4261C18.4317 75.4063 16.4189 76.6809 14.9262 76.9313C14.5012 77.0462 14.0575 77.0734 13.6218 77.011C13.1861 76.9486 12.7675 76.798 12.3912 76.5682C12.015 76.3385 11.6889 76.0344 11.4327 75.6743C11.1765 75.3142 10.9954 74.9056 10.9005 74.4731C10.8878 73.5505 11.2325 72.6592 11.8615 71.988C12.4905 71.3167 13.3545 70.9182 14.2703 70.8769ZM18.5222 79.5032C17.6175 79.7081 17.3235 78.6611 18.296 78.4562C19.2685 78.2514 19.4721 79.2756 18.5222 79.5032ZM10.1768 63.3659C10.0075 63.3793 9.83725 63.3591 9.67573 63.3063C9.51421 63.2535 9.3646 63.1692 9.23545 63.0583C9.10629 62.9473 9.00011 62.8119 8.92298 62.6596C8.84585 62.5073 8.79927 62.3413 8.78591 62.1709C8.77254 62.0005 8.79265 61.8292 8.84509 61.6666C8.89752 61.5041 8.98126 61.3535 9.09152 61.2235C9.20177 61.0936 9.33639 60.9867 9.48768 60.9091C9.63897 60.8315 9.80397 60.7846 9.97326 60.7711C10.1425 60.7577 10.3128 60.7779 10.4743 60.8307C10.6358 60.8835 10.7855 60.9677 10.9146 61.0787C11.0438 61.1897 11.1499 61.3251 11.2271 61.4774C11.3042 61.6296 11.3508 61.7957 11.3642 61.9661C11.3775 62.1364 11.3574 62.3078 11.305 62.4703C11.2525 62.6329 11.1688 62.7835 11.0585 62.9134C10.9483 63.0434 10.8137 63.1503 10.6624 63.2279C10.5111 63.3055 10.3461 63.3524 10.1768 63.3659ZM9.27215 44.042C8.8379 44.0048 8.41525 43.8815 8.02858 43.6791C7.64191 43.4768 7.29887 43.1994 7.01925 42.863C6.73962 42.5265 6.52894 42.1377 6.39935 41.719C6.26976 41.3002 6.22383 40.8597 6.2642 40.423C6.3079 39.9965 6.44112 39.5842 6.65504 39.2135C6.86896 38.8427 7.15871 38.5219 7.5051 38.2722C7.85149 38.0226 8.24661 37.8499 8.66431 37.7655C9.08201 37.6811 9.51275 37.687 9.92802 37.7828C10.7665 37.9209 11.5258 38.3628 12.0632 39.0251C12.6005 39.6874 12.8787 40.5246 12.8455 41.379C12.7171 42.2063 12.2702 42.9496 11.6015 43.4479C10.9327 43.9463 10.096 44.1597 9.27215 44.042ZM31.8884 0.796565C31.142 0.409632 31.0516 -0.182147 32.0467 0.182025C33.0418 0.546197 32.7704 1.22902 31.8884 0.796565ZM15.2202 40.3092C14.2703 40.1499 14.4513 38.8753 15.3785 39.0574C16.3058 39.2395 16.1701 40.4913 15.2202 40.3092ZM28.9935 11.9949C28.3718 11.5304 27.9363 10.8569 27.7662 10.0968C27.596 9.33661 27.7025 8.54025 28.0662 7.8524C28.2217 7.53313 28.4453 7.25238 28.7211 7.03024C28.997 6.8081 29.3182 6.65005 29.6618 6.56741C30.0054 6.48477 30.3629 6.47957 30.7087 6.55219C31.0545 6.62481 31.3801 6.77346 31.6622 6.98749C32.2987 7.4005 32.7599 8.03684 32.9564 8.77291C33.1528 9.50898 33.0704 10.2923 32.7252 10.9706C32.5664 11.3005 32.3393 11.5924 32.0593 11.8267C31.7793 12.0611 31.4527 12.2325 31.1015 12.3295C30.7503 12.4265 30.3825 12.4468 30.0229 12.3891C29.6632 12.3314 29.3199 12.197 29.0161 11.9949H28.9935ZM19.8339 19.3466C20.2636 19.6652 20.8743 20.4846 20.535 21.0764C20.1958 21.6682 19.3138 21.2357 18.9293 21.0764C18.5448 20.9171 17.8211 20.0749 18.1603 19.4831C18.4996 18.8914 19.4042 19.1417 19.8339 19.4831V19.3466ZM12.1896 44.8841C13.4675 45.0184 14.6514 45.6219 15.515 46.5792C16.3786 47.5366 16.8615 48.7806 16.8712 50.0736C16.8948 50.3082 16.8948 50.5446 16.8712 50.7792C16.5192 51.8776 15.8104 52.825 14.8587 53.469C13.9071 54.113 12.7678 54.4162 11.6242 54.3298C10.4179 54.3588 9.24293 53.9416 8.32178 53.1572C7.40063 52.3728 6.7973 51.2757 6.62606 50.0736C6.60293 49.8085 6.60293 49.542 6.62606 49.277C6.68148 48.6156 6.87382 47.9732 7.19069 47.3911C7.50756 46.809 7.94197 46.3001 8.46597 45.8971C8.98997 45.4941 9.59198 45.2059 10.2333 45.051C10.8746 44.8962 11.541 44.8781 12.1896 44.9979V44.8841ZM17.2557 66.7344C17.5053 66.685 17.7622 66.686 18.0114 66.7372C18.2607 66.7884 18.4973 66.8889 18.7077 67.0329C18.9181 67.1769 19.098 67.3614 19.2369 67.5759C19.3759 67.7903 19.4712 68.0304 19.5173 68.2822C19.5173 69.3974 18.4543 70.0803 17.5949 70.1713C17.3462 70.2309 17.088 70.2382 16.8364 70.1925C16.5848 70.1469 16.3453 70.0495 16.1329 69.9063C15.9206 69.7631 15.7399 69.5772 15.6023 69.3604C15.4647 69.1436 15.3731 68.9005 15.3333 68.6463C15.2428 67.4855 16.3736 66.8027 17.2557 66.7344Z" fill="#CCE0FF"/>
<path fill-rule="evenodd" clip-rule="evenodd" d="M179.28 70.8769C177.764 70.6948 175.525 71.4459 175.299 73.4261C175.073 75.4063 177.131 76.6809 178.601 76.9313C179.026 77.0462 179.47 77.0734 179.906 77.011C180.341 76.9486 180.76 76.798 181.136 76.5682C181.512 76.3385 181.838 76.0344 182.095 75.6743C182.351 75.3142 182.532 74.9056 182.627 74.4731C182.645 73.5527 182.306 72.6613 181.68 71.9894C181.055 71.3175 180.193 70.9183 179.28 70.8769ZM175.005 79.5032C175.91 79.7081 176.204 78.6611 175.231 78.4562C174.259 78.2514 174.055 79.2756 175.005 79.5032ZM183.373 63.3659C183.732 63.4045 184.092 63.2998 184.376 63.0742C184.659 62.8486 184.843 62.5202 184.888 62.1595C184.895 61.8012 184.76 61.4548 184.515 61.195C184.27 60.9353 183.933 60.783 183.577 60.7711C183.407 60.7577 183.237 60.7779 183.076 60.8307C182.914 60.8835 182.764 60.9677 182.635 61.0787C182.506 61.1897 182.4 61.3251 182.323 61.4774C182.246 61.6296 182.199 61.7957 182.186 61.9661C182.172 62.1364 182.193 62.3078 182.245 62.4703C182.297 62.6329 182.381 62.7835 182.491 62.9134C182.602 63.0434 182.736 63.1503 182.888 63.2279C183.039 63.3055 183.204 63.3524 183.373 63.3659ZM184.255 44.042C184.69 44.0047 185.114 43.8815 185.502 43.6795C185.89 43.4774 186.234 43.2004 186.515 42.8644C186.797 42.5283 187.01 42.1397 187.142 41.7208C187.274 41.3019 187.323 40.8609 187.286 40.423C187.239 39.998 187.103 39.5877 186.888 39.2188C186.673 38.8498 186.384 38.5305 186.038 38.2815C185.693 38.0326 185.299 37.8595 184.883 37.7736C184.467 37.6876 184.037 37.6908 183.622 37.7828C182.784 37.9251 182.024 38.3673 181.484 39.028C180.944 39.6888 180.659 40.5236 180.682 41.379C180.816 42.2037 181.264 42.9433 181.931 43.4406C182.599 43.9379 183.432 44.1537 184.255 44.042ZM161.639 0.796565C162.408 0.409632 162.476 -0.182147 161.503 0.182025C160.531 0.546197 160.78 1.22902 161.639 0.796565ZM178.262 40.3775C179.212 40.2182 179.053 38.9436 178.104 39.1257C177.154 39.3077 177.312 40.5596 178.262 40.3775ZM164.534 11.9949C165.159 11.5336 165.599 10.8616 165.774 10.1013C165.948 9.3409 165.845 8.5428 165.484 7.8524C165.328 7.53665 165.105 7.25914 164.831 7.03942C164.557 6.81969 164.238 6.66309 163.898 6.58064C163.557 6.49818 163.202 6.49188 162.859 6.56217C162.516 6.63247 162.192 6.77764 161.91 6.98749C161.274 7.4005 160.813 8.03684 160.616 8.77291C160.42 9.50898 160.502 10.2923 160.847 10.9706C161.004 11.2998 161.229 11.5914 161.506 11.8256C161.784 12.0599 162.109 12.2313 162.459 12.3284C162.808 12.4255 163.174 12.446 163.532 12.3884C163.89 12.3309 164.232 12.1967 164.534 11.9949ZM173.58 19.3466C173.151 19.6652 172.54 20.4846 172.879 21.0764C173.218 21.6682 174.123 21.2357 174.508 21.0764C174.892 20.9171 175.593 20.0749 175.254 19.4831C174.915 18.8914 174.01 19.1417 173.58 19.4831V19.3466ZM181.247 44.8841C179.99 45.0483 178.833 45.6635 177.99 46.6168C177.146 47.57 176.673 48.7974 176.656 50.0736C176.656 50.1874 176.656 50.6881 176.656 50.7792C177.008 51.8776 177.717 52.825 178.669 53.469C179.62 54.113 180.76 54.4162 181.903 54.3298C183.111 54.3639 184.288 53.9484 185.211 53.1631C186.133 52.3778 186.735 51.2777 186.901 50.0736C186.924 49.8085 186.924 49.542 186.901 49.277C186.843 48.6169 186.648 47.9764 186.33 47.3961C186.012 46.8157 185.578 46.3082 185.055 45.9059C184.532 45.5035 183.931 45.215 183.291 45.0587C182.651 44.9024 181.986 44.8817 181.338 44.9979L181.247 44.8841ZM176.159 66.7344C175.694 66.7031 175.233 66.8428 174.863 67.1275C174.493 67.4122 174.238 67.8225 174.146 68.2822C174.146 69.3974 175.231 70.0803 176.068 70.1713C176.317 70.2275 176.574 70.2322 176.824 70.1851C177.075 70.138 177.313 70.0402 177.524 69.8975C177.736 69.7549 177.916 69.5704 178.055 69.3553C178.193 69.1402 178.287 68.899 178.33 68.6463C178.321 68.3843 178.261 68.1265 178.152 67.8881C178.044 67.6497 177.889 67.4353 177.698 67.2574C177.506 67.0796 177.282 66.9417 177.037 66.852C176.792 66.7622 176.532 66.7222 176.272 66.7344H176.159Z" fill="#CCE0FF"/>
</g>
<defs>
<clipPath id="clip0_9_4967">
<rect width="199" height="170" fill="white"/>
</clipPath>
</defs>
</svg>
