<svg width="100" height="26" viewBox="0 0 100 26" fill="none" xmlns="http://www.w3.org/2000/svg">
<g clip-path="url(#clip0_9_4906)">
<path fill-rule="evenodd" clip-rule="evenodd" d="M98.044 10.3147C98.4305 10.3147 98.8083 10.4317 99.1297 10.6508C99.4511 10.87 99.7015 11.1814 99.8494 11.5459C99.9973 11.9103 100.036 12.3113 99.9606 12.6982C99.8852 13.085 99.6991 13.4404 99.4258 13.7193C99.1525 13.9982 98.8043 14.1882 98.4253 14.2651C98.0462 14.3421 97.6533 14.3026 97.2962 14.1516C96.9391 14.0007 96.6339 13.7451 96.4192 13.4171C96.2045 13.0891 96.0898 12.7035 96.0898 12.3091C96.0898 11.7801 96.2957 11.2729 96.6622 10.8988C97.0287 10.5248 97.5257 10.3147 98.044 10.3147Z" fill="#7872B9"/>
<path fill-rule="evenodd" clip-rule="evenodd" d="M96.1774 14.9449H99.921C99.8078 16.6192 99.3565 18.2516 98.5952 19.7392C98.0184 20.9622 97.147 22.0157 96.0625 22.8012C95.5103 23.1849 94.8639 23.403 94.1964 23.4308C93.7402 23.4381 93.2904 23.3206 92.8936 23.0906C91.6981 22.3397 90.9778 20.666 90.9778 19.2973C90.9778 19.2543 90.9778 19.2074 90.9778 19.1605V17.2717C90.9586 16.427 91.0468 15.5471 90.6214 14.7885C90.4797 14.5139 90.2692 14.2824 90.0115 14.1176C89.7538 13.9527 89.4579 13.8604 89.1539 13.85H88.993C88.1462 13.9673 87.6021 14.7729 87.4603 15.5745C87.4118 15.8466 87.3938 16.1234 87.4066 16.3996V22.7582H84.2761V16.7047C84.2954 16.3282 84.2762 15.9508 84.2186 15.5784C84.0386 14.7103 83.4025 13.8539 82.4637 13.8539H82.3641C81.9999 13.9174 81.6614 14.087 81.3894 14.3423C81.1175 14.5976 80.9237 14.9278 80.8314 15.293C80.6897 15.849 80.6354 16.4245 80.6705 16.998V22.8168H77.517V10.9249H80.6398V13.6818L81.023 12.8763C81.6054 11.6327 82.7281 10.6472 84.1305 10.6472C85.6939 10.6472 86.8894 11.8595 87.4066 13.2869L87.5944 13.7952L87.7783 13.2869C88.2994 11.8595 89.4949 10.6472 91.0544 10.6472C91.5058 10.664 91.9495 10.7718 92.3599 10.9644C92.7702 11.1571 93.1392 11.4307 93.4454 11.7696C94.1447 12.5031 94.5399 13.4836 94.5489 14.5069V18.1711C94.5489 18.5132 94.5993 18.8533 94.6984 19.18C94.8976 19.8487 95.3229 20.5096 96.1966 20.5018V14.9449H96.1774ZM41.6981 17.5924C41.2579 17.1179 40.9301 16.5466 40.7402 15.9226C40.5 15.1839 40.3834 14.4092 40.3954 13.631V10.964H43.8018V13.4394C43.8324 16.3918 46.6717 16.4075 46.7292 13.4394V10.9562H49.8635V13.6232C49.8635 15.2382 49.4344 16.5678 48.6335 17.5024C47.0166 19.3912 43.2692 19.2504 41.6981 17.5845V17.5924ZM69.4206 23.4582C68.751 23.4889 68.0821 23.383 67.4531 23.1466C66.8241 22.9103 66.2476 22.5482 65.7575 22.0816C65.294 21.6107 64.9416 21.0384 64.7267 20.4079C64.4639 19.6755 64.3341 18.9003 64.3436 18.1203V10.9601H67.7308V17.9287C67.7308 18.8398 67.8956 19.4577 68.2787 19.8526C68.4289 20.0044 68.6092 20.1217 68.8075 20.1966C69.0057 20.2714 69.2174 20.3022 69.4282 20.2867C69.6709 20.3014 69.9136 20.2569 70.1361 20.1569C70.3586 20.057 70.5547 19.9044 70.708 19.7119C71.0583 19.1891 71.2232 18.5601 71.1755 17.9287V10.9601H74.5474V18.1242C74.5474 19.7392 74.0953 21.0727 73.2255 21.9995C72.7861 22.4812 72.2393 22.8474 71.6315 23.0671C70.9287 23.3413 70.1805 23.4741 69.4282 23.4582H69.4206ZM56.9254 22.9224C56.115 22.9292 55.311 22.7766 54.5574 22.4727C53.8648 22.192 53.2371 21.7672 52.7143 21.2252C52.1848 20.6664 51.7762 20.0003 51.515 19.27C50.9273 17.6621 50.9273 15.8919 51.515 14.284C51.7755 13.5634 52.1808 12.9062 52.7047 12.3547C53.2286 11.8031 53.8596 11.3694 54.5574 11.0813C56.0814 10.4817 57.7694 10.4817 59.2934 11.0813C59.9911 11.3694 60.6222 11.8031 61.1461 12.3547C61.67 12.9062 62.0752 13.5634 62.3357 14.284C62.9234 15.8919 62.9234 17.6621 62.3357 19.27C62.0733 19.9904 61.6646 20.6461 61.1364 21.194C60.6143 21.7406 59.9867 22.1707 59.2934 22.4571C58.54 22.762 57.7358 22.9147 56.9254 22.9068V22.9224ZM56.8411 14.1315C56.5119 14.1266 56.1856 14.1939 55.8842 14.3289C55.5827 14.4638 55.3132 14.6632 55.0938 14.9136C54.6484 15.4547 54.4042 16.1388 54.4042 16.8454C54.4042 17.5521 54.6484 18.2362 55.0938 18.7772C55.3143 19.0263 55.5841 19.2247 55.8852 19.3596C56.1864 19.4944 56.5122 19.5625 56.8411 19.5593C57.173 19.5681 57.5027 19.5026 57.8072 19.3675C58.1117 19.2324 58.3835 19.0309 58.6037 18.7772C59.0489 18.2384 59.2931 17.5562 59.2931 16.8513C59.2931 16.1464 59.0489 15.4642 58.6037 14.9254C58.385 14.6735 58.1157 14.4726 57.8143 14.3363C57.5128 14.2001 57.1861 14.1315 56.8564 14.1354L56.8411 14.1315Z" fill="#7872B9"/>
<path d="M46.8025 16.6069H43.6797V22.8129H46.8025V16.6069Z" fill="#7872B9"/>
<path fill-rule="evenodd" clip-rule="evenodd" d="M25.9753 -0.0207501C26.7833 -0.0215237 27.5734 0.222305 28.2456 0.679889C28.9178 1.13747 29.442 1.78826 29.7517 2.54991C30.0615 3.31155 30.1429 4.14985 29.9857 4.95874C29.8285 5.76764 29.4398 6.51077 28.8687 7.09416C28.2977 7.67754 27.5699 8.07496 26.7774 8.23612C25.985 8.39729 25.1635 8.31496 24.4169 7.99956C23.6703 7.68416 23.0322 7.14987 22.5832 6.46425C22.1342 5.77864 21.8945 4.97252 21.8945 4.14788C21.8945 3.04297 22.3243 1.98325 23.0895 1.2016C23.8547 0.419939 24.8927 -0.0197136 25.9753 -0.0207501Z" fill="#7872B9"/>
<path fill-rule="evenodd" clip-rule="evenodd" d="M22.4653 10.0568H29.5042C29.2589 13.8265 27.7301 18.8789 24.9828 22.2381C23.1857 24.4319 21.0169 26.0665 18.4688 25.9883C18.2645 25.9809 18.0609 25.9587 17.8596 25.9218C16.5429 25.6753 15.3727 24.9133 14.5988 23.7984C13.2845 22.0426 13.0661 20.6426 12.683 19.0002C11.9166 15.4416 8.34547 15.3634 7.31857 18.4175C7.12346 19.204 7.05104 20.0169 7.10399 20.8264V25.9961H0V20.4275C0.0383171 14.2137 4.38731 9.08697 10.6138 9.47802C14.3804 9.71656 17.5684 12.3562 19.013 15.8991C19.5494 17.2131 19.5877 18.746 20.5725 19.7549C20.8165 20.0136 21.1112 20.2169 21.4373 20.3517C21.7634 20.4864 22.1137 20.5496 22.4653 20.537V10.0568Z" fill="#7872B9"/>
<path fill-rule="evenodd" clip-rule="evenodd" d="M9.91664 -0.00512512C10.7247 -0.00512475 11.5145 0.239458 12.1863 0.697686C12.8581 1.15591 13.3816 1.8072 13.6907 2.56914C13.9997 3.33109 14.0804 4.16946 13.9225 4.9782C13.7646 5.78694 13.3752 6.52972 12.8035 7.11255C12.2319 7.69539 11.5037 8.0921 10.7112 8.25251C9.91856 8.41291 9.09717 8.3298 8.35087 8.01369C7.60457 7.69758 6.96691 7.16267 6.51855 6.47663C6.07019 5.79058 5.83128 4.98423 5.83203 4.15959C5.83203 3.61234 5.93771 3.07046 6.14303 2.56492C6.34835 2.05938 6.64928 1.60009 7.02862 1.21331C7.40796 0.826526 7.85827 0.519835 8.35382 0.310768C8.84936 0.101701 9.38042 -0.00563896 9.91664 -0.00512512Z" fill="#7872B9"/>
</g>
<defs>
<clipPath id="clip0_9_4906">
<rect width="100" height="26" fill="white"/>
</clipPath>
</defs>
</svg>
