<svg width="20" height="20" viewBox="0 0 20 20" fill="none" xmlns="http://www.w3.org/2000/svg">
<path d="M4.52013 13.8096C7.59501 9.18703 11.7696 5.66412 15.9441 2.12085C16.5143 1.63208 17.0845 1.12299 17.8584 1.00081C18.7339 0.858339 19.5078 1.06189 19.8743 1.99867C20.2612 2.99652 19.5892 3.24085 18.8358 3.58703C17.0437 4.42198 15.7201 5.92878 14.2947 7.23212C11.9121 9.4111 9.44813 11.5085 7.6765 14.2372C6.98417 15.3165 6.27137 16.3754 6.00661 17.6582C5.90476 18.2081 5.76229 18.7172 5.15133 18.8393C4.43853 19.0022 4.0313 18.4932 3.68515 18.0044C2.76882 16.6197 2.05602 15.1331 1.44508 13.6058C1.03784 12.5673 0.711988 11.4881 0.345515 10.4291C0.202901 10.0422 0.182588 9.65528 0.54921 9.43128C1.01754 9.12589 1.44525 9.3702 1.71001 9.75714C2.09696 10.307 2.42281 10.8975 2.72819 11.4881C3.17605 12.3435 3.46114 13.3006 4.52008 13.8097L4.52013 13.8096Z" fill="#FACD6E"/>
</svg>
