<svg width="54" height="70" viewBox="0 0 54 70" fill="none" xmlns="http://www.w3.org/2000/svg">
<g clip-path="url(#clip0_9_4835)">
<path fill-rule="evenodd" clip-rule="evenodd" d="M28.8688 7.38814C29.1072 7.11974 29.4543 7.04239 29.7249 7.19248C49.589 18.2066 38.8632 47.1094 20.6482 53.264C23.476 53.4636 25.7844 53.9114 26.4561 55.1611C26.6269 58.7897 23.1432 58.5359 16.4028 55.0455C16.7301 51.587 17.3652 42.5383 20.8473 45.3418C21.2153 47.0825 20.578 49.1602 19.4215 51.4855C41.7704 38.059 41.9991 19.1933 28.9085 8.82405C28.5176 8.51437 28.4915 7.81298 28.8688 7.38814Z" fill="#FACD6E"/>
</g>
<defs>
<clipPath id="clip0_9_4835">
<rect width="47.5425" height="42.2005" fill="white" transform="matrix(0.41287 0.91079 -0.805637 0.59241 34.082 0.849365)"/>
</clipPath>
</defs>
</svg>
