<svg width="30" height="30" viewBox="0 0 30 30" fill="none" xmlns="http://www.w3.org/2000/svg">
<path d="M1.8427 13.6054C1.31942 13.754 0.927398 13.9538 0.710343 14.2149C-0.448953 15.6094 2.83402 17.1692 4.6458 17.0925C8.192 16.9424 13.1108 16.9424 13.9217 16.9424C15.3014 16.9424 24.2084 15.8563 25.0766 15.8563C25.7711 15.8563 28.5146 15.5324 29.4731 14.2162C30.0663 14.2142 30.5209 12.0742 28.7404 12.5768C20.1273 15.0078 10.4517 11.16 1.8427 13.6054Z" fill="#FACD6E"/>
<path d="M16.3944 1.8427C16.2458 1.31942 16.0459 0.927398 15.7849 0.710343C14.3904 -0.448953 12.8306 2.83402 12.9073 4.6458C13.0574 8.192 13.0574 13.1108 13.0574 13.9217C13.0574 15.3014 14.1435 24.2084 14.1435 25.0766C14.1435 25.7711 14.4674 28.5146 15.7835 29.4731C15.7856 30.0663 17.9256 30.5209 17.423 28.7404C14.992 20.1273 18.8398 10.4517 16.3944 1.8427Z" fill="#FACD6E"/>
</svg>
