<svg width="90" height="90" viewBox="0 0 90 90" fill="none" xmlns="http://www.w3.org/2000/svg">
<path fill-rule="evenodd" clip-rule="evenodd" d="M41.157 3.84924C18.8273 3.84924 4.94946 27.9184 3.46566 53.6892C2.92742 63.6514 6.17141 71.243 11.6556 76.8567C20.3111 85.7572 34.5381 89.5967 48.2414 89.5967C54.6857 89.5967 62.0611 87.1679 67.9526 84.3756C74.5715 81.2488 79.5902 77.6566 82.7906 71.6793C95.9265 47.1447 74.8916 3.84924 41.157 3.84924Z" fill="#CDE1FF"/>
<path fill-rule="evenodd" clip-rule="evenodd" d="M61.6836 21.9701L54.6137 39.5675L53.4645 51.7111C53.4645 51.7111 54.4973 57.5285 54.7446 57.9357C54.9919 58.3429 42.6706 59.9863 42.6706 59.9863L36.2408 58.1538L37.2009 52.1038L36.7645 44.3958L27.1198 46.0683L21.4756 23.0753L26.7416 14.9893L36.6336 16.7781L46.1328 14.9893L49.2168 17.4325L61.6836 21.9701Z" fill="#FDD3D4"/>
<path fill-rule="evenodd" clip-rule="evenodd" d="M44.2841 80.478C43.6876 82.3832 44.4441 83.1395 46.3498 82.5432C46.9607 80.5798 46.2334 79.8672 44.2841 80.478ZM44.2841 75.7224L46.3498 75.8678C47.368 72.4647 43.2658 72.4938 44.2841 75.7224ZM46.4952 66.88L44.2841 66.7492L44.1531 68.9743L46.3643 69.1052L46.4952 66.88ZM79.0078 76.8713C76.3748 79.78 69.5232 83.8957 64.6499 85.8736C52.1807 90.98 38.1974 90.9486 25.7512 85.7864C21.067 83.8666 14.1135 79.6782 11.626 76.8713C12.4697 69.1052 14.0554 66.0656 18.8122 62.8079C23.1247 59.9207 27.7821 57.5853 32.6756 55.8562C31.9628 59.7247 33.6502 63.1279 37.4906 63.2442C42.0002 63.3896 43.9932 59.6375 45.3169 58.4158C46.263 59.5948 47.3095 60.6896 48.4445 61.6881C54.9471 66.0511 59.7621 60.161 57.7692 55.8707C61.3332 56.5107 69.3341 61.0482 72.0253 62.9097C76.7094 66.1529 78.135 69.2506 79.0078 76.8713Z" fill="#9690D4"/>
<path fill-rule="evenodd" clip-rule="evenodd" d="M71.4721 40.513L53.5502 42.6799V34.8847C60.7218 34.1866 59.9072 26.3041 57.1724 24.3263C54.4376 22.3484 52.7356 24.9225 50.3062 24.3263C47.8768 23.73 47.2949 21.6357 47.6441 18.7707C43.8473 20.4577 42.2908 21.3303 37.2139 20.4286C33.6935 19.7887 29.7076 18.0145 26.1436 18.4798C23.3796 19.9342 24.0779 34.4775 26.3763 40.4548C27.4819 43.3635 28.4856 43.7852 29.6348 45.6031C26.7254 45.8649 25.9544 47.3338 23.816 46.9702C21.4158 40.6293 18.2882 22.2466 21.1103 13.0988C27.831 -2.18621 45.3311 -2.66614 55.5722 4.37282C57.3209 5.57231 58.806 7.11641 59.9363 8.91034C62.8457 13.3606 60.0818 12.1244 63.9368 14.0878C72.1413 18.349 73.596 29.0674 71.4721 40.513Z" fill="#FAA8B7"/>
<path fill-rule="evenodd" clip-rule="evenodd" d="M57.7715 55.8997C59.7644 60.1463 54.9493 66.08 48.4468 61.717C47.3117 60.7186 46.2653 59.6238 45.3192 58.4448C43.9954 59.6664 42.0025 63.4186 37.4929 63.2732C33.6525 63.1423 31.965 59.7537 32.6778 55.8852C33.6379 54.5035 34.7144 51.973 37.1874 51.2749C37.3183 54.3436 37.1874 54.7799 39.6022 55.8852C41.3914 56.7327 43.3466 57.1723 45.3264 57.1723C47.3063 57.1723 49.2615 56.7327 51.0507 55.8852C53.451 54.7362 53.2764 54.329 53.4655 51.2604C54.5673 51.614 55.5295 52.3062 56.2149 53.2383C56.9878 53.9503 57.5299 54.8772 57.7715 55.8997Z" fill="#FFCF70"/>
<path fill-rule="evenodd" clip-rule="evenodd" d="M44.2862 80.4776C46.2355 79.8668 46.9629 80.5794 46.3519 82.5428C44.4462 83.139 43.6607 82.3828 44.2862 80.4776Z" fill="#FFCF70"/>
<path fill-rule="evenodd" clip-rule="evenodd" d="M44.2861 75.7222C43.2678 72.4936 47.3701 72.4645 46.3518 75.8677L44.2861 75.7222Z" fill="#FFCF70"/>
<path d="M44.2745 66.6565L46.4961 66.792L46.3606 69.013L44.139 68.8775L44.2745 66.6565Z" fill="#FFCF70"/>
<path fill-rule="evenodd" clip-rule="evenodd" d="M21.7103 13.259C22.682 12.1906 23.8042 11.2696 25.0416 10.5248C30.0458 7.2962 38.6721 7.09259 45.291 10.2776C48.1009 11.5551 50.587 13.449 52.5645 15.8186C54.5395 18.1056 55.6692 21.0011 55.7649 24.021C55.359 27.9202 54.3786 31.7379 52.8555 35.3503C52.0996 36.7402 51.1162 37.9937 49.9461 39.0588C47.9489 40.9628 45.4053 42.1936 42.6726 42.5783C42.4953 42.1522 42.2708 41.7473 42.0034 41.3712C40.796 39.8441 39.3268 39.8151 37.2174 39.2915C36.0091 38.9058 34.7588 38.6665 33.4934 38.5789C32.5014 38.6696 31.5785 39.1257 30.904 39.8587C30.1699 40.6495 29.762 41.6885 29.762 42.7673C29.762 43.8462 30.1699 44.8852 30.904 45.676C31.7965 46.4565 32.9101 46.9394 34.0898 47.0576C35.3554 47.3776 36.6647 47.7266 37.9448 48.0029C41.0419 48.4309 44.1967 48.1016 47.1385 47.0431C49.4867 46.1787 51.6381 44.8535 53.4664 43.1455C53.7122 42.8669 53.9851 42.6136 54.2811 42.3892C55.7027 40.9117 56.8811 39.2182 57.7724 37.3718C58.0051 36.9209 58.4415 36.9355 59.4162 36.4992C59.9734 36.22 60.4878 35.8624 60.9436 35.4375C61.4954 34.9129 61.8498 34.2146 61.9474 33.4596C62.3692 31.7581 62.9075 29.9111 63.242 28.224C63.2887 27.5703 63.1975 26.9141 62.9745 26.2978C62.7515 25.6816 62.4016 25.1189 61.9474 24.6464C60.6963 23.0175 61.2637 24.6464 60.9727 21.9995C60.715 20.0692 60.1605 18.1904 59.3289 16.4294L57.976 13.9861C56.2153 11.35 53.9571 9.08254 51.328 7.31074C42.7598 1.6243 24.8815 1.40615 22.0012 11.9646C21.8412 12.4154 21.8412 12.8372 21.7103 13.259Z" fill="#645F9E"/>
</svg>
