<svg width="40" height="40" viewBox="0 0 40 40" fill="none" xmlns="http://www.w3.org/2000/svg">
<path fill-rule="evenodd" clip-rule="evenodd" d="M24.2471 3.65674C33.3125 3.65674 39.5429 14.8287 39.5429 23.8961C39.5429 32.9635 30.1248 38.7164 21.0658 38.7164C12.0067 38.7164 6.40625 30.0901 6.40625 21.0291C6.40625 11.968 15.1881 3.65674 24.2471 3.65674Z" fill="#CDE1FF"/>
<path fill-rule="evenodd" clip-rule="evenodd" d="M26.138 3.8269C30.6297 4.62085 34.2898 8.16841 36.6459 12.6485C36.3824 14.5098 35.4752 16.2199 34.0819 17.4815C35.8711 22.1255 34.9387 27.8029 31.8329 31.3441C26.5411 37.4247 13.5636 35.2571 12.9715 35.0303L12.3415 35.4336C8.56165 32.1002 6.39453 26.656 6.39453 21.0354C6.46615 17.5844 7.63326 14.2456 9.7271 11.5017C12.9715 9.81301 17.0096 9.1766 20.9092 9.40344C21.2526 8.11434 21.9098 6.93038 22.8222 5.95729C23.7346 4.9842 24.8738 4.25229 26.138 3.8269Z" fill="#B0C8EB"/>
<path fill-rule="evenodd" clip-rule="evenodd" d="M5.71562 30.443C5.43843 31.9301 4.25408 34.8538 6.1692 34.8538C7.54885 34.8538 8.59461 33.8771 10.2262 32.8626C10.7932 33.0832 23.8022 35.2508 29.0877 29.1765C34.3732 23.1021 33.3463 10.7455 23.147 8.02973C13.5966 5.50927 0.12774 8.47082 0.310433 20.5313C0.36713 24.5073 2.01767 27.954 4.26668 29.6553C4.70979 29.9854 5.19768 30.2506 5.71562 30.443Z" fill="#FFCF70"/>
<path d="M16.6568 15.1375H7.54101C7.18613 15.1375 6.89844 15.4252 6.89844 15.7802V17.1349C6.89844 17.4899 7.18613 17.7776 7.54101 17.7776H16.6568C17.0116 17.7776 17.2993 17.4899 17.2993 17.1349V15.7802C17.2993 15.4252 17.0116 15.1375 16.6568 15.1375Z" fill="white"/>
<path d="M25.0102 19.6807H7.54101C7.18613 19.6807 6.89844 19.9684 6.89844 20.3234V21.6781C6.89844 22.0331 7.18613 22.3209 7.54101 22.3209H25.0102C25.3651 22.3209 25.6528 22.0331 25.6528 21.6781V20.3234C25.6528 19.9684 25.3651 19.6807 25.0102 19.6807Z" fill="white"/>
<path d="M25.0102 24.2236H7.54101C7.18613 24.2236 6.89844 24.5114 6.89844 24.8664V26.2211C6.89844 26.5761 7.18613 26.8638 7.54101 26.8638H25.0102C25.3651 26.8638 25.6528 26.5761 25.6528 26.2211V24.8664C25.6528 24.5114 25.3651 24.2236 25.0102 24.2236Z" fill="white"/>
<path fill-rule="evenodd" clip-rule="evenodd" d="M25.9231 17.3491C27.5164 17.3479 29.0736 16.8741 30.3978 15.9878C31.722 15.1015 32.7537 13.8424 33.3626 12.3697C33.9715 10.8969 34.1302 9.2767 33.8186 7.71378C33.5069 6.15086 32.7391 4.71544 31.612 3.58897C30.4849 2.46251 29.0492 1.69557 27.4864 1.38511C25.9236 1.07466 24.3038 1.23462 22.8319 1.84479C21.36 2.45495 20.1019 3.48792 19.2169 4.81312C18.3318 6.13831 17.8594 7.69622 17.8594 9.28991C17.8644 11.4269 18.7157 13.4748 20.2271 14.9853C21.7384 16.4958 23.7865 17.3458 25.9231 17.3491Z" fill="#FAA8B7"/>
<path fill-rule="evenodd" clip-rule="evenodd" d="M26.7352 6.18975C26.6162 7.1827 26.5762 8.18353 26.6155 9.18281C26.6309 10.1511 26.7534 11.1148 26.9809 12.0561C26.9809 12.1444 27.025 12.2389 27.0502 12.3334C27.0725 12.4247 27.0893 12.5173 27.1006 12.6106C27.1052 12.6852 27.088 12.7594 27.051 12.8243C27.0141 12.8892 26.9591 12.942 26.8927 12.9761C26.7449 13.0475 26.5842 13.0882 26.4202 13.0958C26.2385 13.1033 26.0565 13.0885 25.8784 13.0517C25.7455 13.0345 25.6171 12.9917 25.5004 12.9257C25.3608 12.8281 25.2551 12.6893 25.1981 12.5287C25.131 12.3607 25.0763 12.188 25.0343 12.012C24.9426 11.5972 24.8836 11.1758 24.8579 10.7518C24.8138 10.254 24.7886 9.73731 24.7823 9.20802C24.7631 8.88484 24.7631 8.56081 24.7823 8.23763C24.3767 8.2679 23.9693 8.21428 23.5853 8.08011C22.9553 7.77135 23.4782 7.20424 23.7932 6.93329C24.3476 6.4544 25.3619 5.60375 25.3997 5.58484C25.5238 5.52476 25.6588 5.49047 25.7965 5.48402C25.9348 5.47115 26.074 5.47115 26.2123 5.48402C26.3645 5.49428 26.5098 5.55152 26.6281 5.64785C26.6859 5.72411 26.7256 5.81255 26.7442 5.90644C26.7627 6.00034 26.7597 6.09722 26.7352 6.18975Z" fill="white"/>
</svg>
