<svg aria-hidden="true" style="position: absolute; width: 0; height: 0; overflow: hidden;" version="1.1" xmlns="http://www.w3.org/2000/svg" xmlns:xlink="http://www.w3.org/1999/xlink">
<defs>
<symbol id="icon-cross" viewBox="0 0 32 32">
<path fill="#7872b9" style="fill: var(--color1, #7872b9)" d="M7.129 5.028c-0.507-0.283-0.953-0.428-1.314-0.394-1.926 0.177-0.626 3.83 0.798 5.139 2.788 2.562 6.498 6.271 7.11 6.883 1.041 1.041 8.578 6.94 9.233 7.594 0.524 0.524 2.837 2.349 4.553 2.079 0.449 0.446 2.406-0.825 0.684-1.789-8.33-4.663-12.726-14.863-21.063-19.512z"></path>
<path fill="#7872b9" style="fill: var(--color1, #7872b9)" d="M26.974 7.128c0.283-0.507 0.428-0.953 0.394-1.314-0.177-1.926-3.83-0.626-5.139 0.798-2.561 2.788-6.271 6.498-6.883 7.109-1.041 1.041-6.94 8.578-7.594 9.233-0.524 0.524-2.349 2.837-2.079 4.553-0.446 0.449 0.825 2.406 1.789 0.684 4.663-8.33 14.863-12.726 19.512-21.063z"></path>
</symbol>
<symbol id="icon-dzen" viewBox="0 0 32 32">
<path fill="#d7c3e6" style="fill: var(--color2, #d7c3e6)" d="M32 16c0 8.837-7.163 16-16 16s-16-7.163-16-16c0-8.837 7.163-16 16-16s16 7.163 16 16z"></path>
<path fill="#fff" style="fill: var(--color3, #fff)" d="M32 16.171v-0.343c-7.086-0.229-10.32-0.4-12.914-2.914-2.514-2.594-2.697-5.829-2.914-12.914h-0.343c-0.229 7.086-0.4 10.32-2.914 12.914-2.594 2.514-5.829 2.697-12.914 2.914v0.343c7.086 0.229 10.32 0.4 12.914 2.914 2.514 2.594 2.697 5.829 2.914 12.914h0.343c0.229-7.086 0.4-10.32 2.914-12.914 2.594-2.514 5.829-2.697 12.914-2.914z"></path>
</symbol>
<symbol id="icon-telegram" viewBox="0 0 32 32">
<path fill="#d7c3e6" style="fill: var(--color2, #d7c3e6)" d="M32 16c0 8.837-7.163 16-16 16s-16-7.163-16-16c0-8.837 7.163-16 16-16s16 7.163 16 16z"></path>
<path fill="#fff" style="fill: var(--color3, #fff)" d="M6.722 15.821c5.865-2.58 13.455-5.726 14.503-6.161 2.748-1.14 3.592-0.921 3.171 1.602-0.302 1.814-1.173 7.82-1.868 11.558-0.412 2.217-1.337 2.479-2.79 1.52-0.699-0.462-4.228-2.795-4.993-3.343-0.699-0.499-1.663-1.1-0.454-2.283 0.43-0.421 3.251-3.115 5.448-5.211 0.288-0.275-0.074-0.728-0.406-0.507-2.962 1.964-7.069 4.69-7.591 5.046-0.79 0.536-1.548 0.782-2.909 0.391-1.029-0.295-2.033-0.648-2.424-0.782-1.506-0.517-1.148-1.187 0.314-1.83z"></path>
</symbol>
<symbol id="icon-vk" viewBox="0 0 32 32">
<path fill="#d7c3e6" style="fill: var(--color2, #d7c3e6)" d="M32 16c0 8.837-7.163 16-16 16s-16-7.163-16-16c0-8.837 7.163-16 16-16s16 7.163 16 16z"></path>
<path fill="#fff" style="fill: var(--color3, #fff)" d="M15.368 23.146h1.291c0 0 0.39-0.045 0.589-0.267 0.183-0.205 0.177-0.589 0.177-0.589s-0.025-1.8 0.779-2.064c0.793-0.261 1.811 1.739 2.889 2.508 0.816 0.582 1.436 0.454 1.436 0.454l2.885-0.042c0 0 1.509-0.097 0.793-1.329-0.059-0.101-0.417-0.912-2.145-2.578-1.809-1.744-1.566-1.462 0.612-4.478 1.327-1.837 1.857-2.958 1.692-3.439-0.158-0.458-1.134-0.337-1.134-0.337l-3.248 0.021c0 0-0.241-0.034-0.419 0.077-0.175 0.108-0.287 0.362-0.287 0.362s-0.514 1.421-1.2 2.63c-1.446 2.551-2.025 2.686-2.261 2.527-0.55-0.369-0.413-1.483-0.413-2.274 0-2.472 0.361-3.503-0.703-3.77-0.353-0.088-0.613-0.147-1.516-0.157-1.159-0.012-2.14 0.004-2.695 0.286-0.369 0.188-0.655 0.607-0.481 0.631 0.215 0.030 0.701 0.136 0.958 0.501 0.333 0.47 0.321 1.527 0.321 1.527s0.191 2.91-0.447 3.271c-0.438 0.248-1.038-0.258-2.328-2.572-0.66-1.185-1.159-2.496-1.159-2.496s-0.096-0.245-0.268-0.376c-0.208-0.159-0.499-0.209-0.499-0.209l-3.086 0.021c0 0-0.463 0.013-0.633 0.223-0.151 0.186-0.012 0.571-0.012 0.571s2.416 5.872 5.152 8.831c2.509 2.713 5.358 2.535 5.358 2.535z"></path>
</symbol>
</defs>
</svg>
