<svg width="40" height="40" viewBox="0 0 40 40" fill="none" xmlns="http://www.w3.org/2000/svg">
<circle cx="20" cy="20" r="20" fill="#D7C3E6"/>
<path d="M8.40227 19.7758C15.7336 16.5506 25.2209 12.6183 26.5305 12.0741C29.9658 10.6496 31.0199 10.9226 30.4943 14.0772C30.1169 16.3446 29.0278 23.8516 28.1598 28.5241C27.6447 31.2949 26.4891 31.6233 24.672 30.4246C23.7982 29.8476 19.3876 26.931 18.4304 26.2461C17.5565 25.622 16.3514 24.8712 17.8628 23.3925C18.4006 22.8657 21.9263 19.4993 24.6732 16.879C25.0331 16.5348 24.581 15.9696 24.1657 16.2455C20.4633 18.7007 15.3299 22.1086 14.6766 22.5525C13.6896 23.2227 12.7417 23.5301 11.0401 23.0413C9.75444 22.6721 8.49852 22.2316 8.00969 22.0636C6.12727 21.4173 6.5741 20.5802 8.40227 19.7758Z" fill="white"/>
</svg>
