<svg width="25" height="50" viewBox="0 0 25 50" fill="none" xmlns="http://www.w3.org/2000/svg">
<path fill-rule="evenodd" clip-rule="evenodd" d="M22.5991 4.69208C21.8188 11.2046 21.5563 17.7688 21.8142 24.3229C21.9151 30.6739 22.7187 36.9943 24.2103 43.1684C24.2103 43.747 24.4995 44.3669 24.6647 44.9869C24.8112 45.5858 24.9215 46.1931 24.9952 46.8053C25.0253 47.2941 24.9124 47.7811 24.6703 48.2068C24.4282 48.6325 24.0674 48.9784 23.6319 49.2023C22.6627 49.6706 21.6087 49.9377 20.5335 49.9876C19.3418 50.0368 18.1486 49.9397 16.9806 49.6983C16.1088 49.5852 15.2671 49.3045 14.5018 48.8717C13.5862 48.2313 12.893 47.3211 12.5188 46.268C12.0793 45.1659 11.7203 44.0333 11.4447 42.8791C10.8436 40.1584 10.4569 37.3948 10.288 34.6135C9.99877 31.3486 9.83352 27.9597 9.79221 24.4882C9.66649 22.3685 9.66649 20.2433 9.79221 18.1237C7.13258 18.3222 4.46058 17.9705 1.94281 17.0905C-2.18845 15.0654 1.24051 11.3459 3.30614 9.56878C6.94164 6.42786 13.593 0.848578 13.8408 0.724594C14.6548 0.330541 15.5402 0.105598 16.4435 0.0633473C17.3504 -0.0211158 18.2632 -0.0211158 19.1702 0.0633473C20.1683 0.130625 21.121 0.506062 21.8968 1.13788C22.276 1.63804 22.5363 2.21805 22.658 2.83389C22.7797 3.44972 22.7596 4.0852 22.5991 4.69208Z" fill="#7872B9"/>
</svg>
