<svg width="50" height="50" viewBox="0 0 50 50" fill="none" xmlns="http://www.w3.org/2000/svg">
<path fill-rule="evenodd" clip-rule="evenodd" d="M25.7779 10.5146C32.8017 10.5146 38.6315 14.8964 42.3682 20.7247V36.5314C42.3682 46.6573 41.7782 45.3933 31.5304 45.8217C25.9745 46.0534 18.5995 46.2921 13.2684 45.8217C9.70022 45.4846 7.46663 44.8737 6.44114 43.6308C5.1347 42.0297 5.7809 27.2131 5.7809 24.2147C5.7809 21.6498 6.54285 19.0864 8.44853 17.3697C10.3116 15.6914 12.407 14.2794 14.6757 13.1803C18.1408 11.5015 21.9281 10.5922 25.7779 10.5146Z" fill="#B0C8EB"/>
<path fill-rule="evenodd" clip-rule="evenodd" d="M12.3402 7.71313C18.4018 7.62184 33.7489 7.07413 40.9835 8.14149C43.175 8.4645 43.6737 10.1498 43.6737 11.7017V34.2706C43.6737 44.3965 43.0837 43.1325 32.8358 43.5609C27.28 43.7926 19.9049 44.0313 14.5387 43.5609C10.9776 43.2238 8.74397 42.6129 7.71849 41.37C6.41205 39.7689 7.05824 24.9523 7.05824 21.9539C7.05824 19.5383 6.69301 12.3266 7.22682 10.4377C7.84492 8.2117 10.0785 7.74122 12.3402 7.71313Z" fill="white"/>
<path fill-rule="evenodd" clip-rule="evenodd" d="M12.3417 7.71313C18.4033 7.62184 33.7504 7.07413 40.985 8.14149C43.1765 8.4645 43.6752 10.1498 43.6752 11.7017V18.6465C31.4443 18.2346 19.218 18.2346 6.99651 18.6465C6.91925 15.5919 6.85603 11.7017 7.2283 10.3885C7.8464 8.2117 10.08 7.74122 12.3417 7.71313Z" fill="#FAA8B7"/>
<path fill-rule="evenodd" clip-rule="evenodd" d="M15.8115 14.2645C16.4394 14.2645 17.0532 14.0783 17.5753 13.7295C18.0974 13.3808 18.5043 12.8851 18.7446 12.3051C18.9849 11.7251 19.0478 11.087 18.9253 10.4713C18.8028 9.85558 18.5004 9.29004 18.0564 8.84615C17.6124 8.40226 17.0467 8.09996 16.4309 7.97749C15.815 7.85503 15.1767 7.91787 14.5966 8.1581C14.0164 8.39834 13.5206 8.80516 13.1718 9.32711C12.8229 9.84907 12.6367 10.4627 12.6367 11.0905C12.6386 11.9317 12.9737 12.7379 13.5686 13.3328C14.1636 13.9276 14.9701 14.2626 15.8115 14.2645Z" fill="#DB8897"/>
<path fill-rule="evenodd" clip-rule="evenodd" d="M13.6285 5.43777C13.0736 6.47703 13.5652 10.9431 13.6285 11.252C13.7537 11.6311 13.9735 11.9719 14.2673 12.2422C14.5611 12.5126 14.919 12.7035 15.3072 12.7969C15.8064 12.9337 16.3388 12.8774 16.7983 12.6392C17.2578 12.4011 17.6107 11.9985 17.7866 11.5119C18.1799 9.98807 18.489 6.15401 17.4354 4.92515C16.1922 3.45753 14.4994 3.81567 13.6285 5.43777Z" fill="#6B66A6"/>
<path fill-rule="evenodd" clip-rule="evenodd" d="M34.7842 14.2645C35.4121 14.2645 36.0259 14.0783 36.548 13.7295C37.0701 13.3808 37.477 12.8851 37.7173 12.3051C37.9576 11.7251 38.0205 11.087 37.898 10.4713C37.7755 9.85558 37.4731 9.29004 37.0291 8.84615C36.5851 8.40226 36.0194 8.09996 35.4035 7.97749C34.7877 7.85503 34.1494 7.91787 33.5692 8.1581C32.9891 8.39834 32.4933 8.80516 32.1444 9.32711C31.7956 9.84907 31.6094 10.4627 31.6094 11.0905C31.6112 11.9317 31.9463 12.7379 32.5413 13.3328C33.1363 13.9276 33.9427 14.2626 34.7842 14.2645Z" fill="#DB8897"/>
<path fill-rule="evenodd" clip-rule="evenodd" d="M32.7183 5.43777C32.1634 6.47703 32.6551 10.9431 32.7183 11.252C32.8458 11.6298 33.0665 11.9693 33.3599 12.2393C33.6533 12.5093 34.0099 12.7011 34.397 12.7969C34.8962 12.9354 35.4294 12.8798 35.8893 12.6415C36.3492 12.4031 36.7019 11.9995 36.8764 11.5119C37.2698 9.98807 37.5788 6.15401 36.5323 4.92515C35.282 3.45753 33.5963 3.81567 32.7183 5.43777Z" fill="#6B66A6"/>
<path d="M16.1369 22.3892H11.4309C11.2447 22.3892 11.0938 22.5401 11.0938 22.7262V27.431C11.0938 27.6172 11.2447 27.7681 11.4309 27.7681H16.1369C16.3231 27.7681 16.474 27.6172 16.474 27.431V22.7262C16.474 22.5401 16.3231 22.3892 16.1369 22.3892Z" fill="#CDE1FF"/>
<path d="M23.8478 22.3892H19.1418C18.9556 22.3892 18.8047 22.5401 18.8047 22.7262V27.431C18.8047 27.6172 18.9556 27.7681 19.1418 27.7681H23.8478C24.034 27.7681 24.185 27.6172 24.185 27.431V22.7262C24.185 22.5401 24.034 22.3892 23.8478 22.3892Z" fill="#CDE1FF"/>
<path d="M31.0197 22.3892H26.3137C26.1275 22.3892 25.9766 22.5401 25.9766 22.7262V27.431C25.9766 27.6172 26.1275 27.7681 26.3137 27.7681H31.0197C31.2059 27.7681 31.3568 27.6172 31.3568 27.431V22.7262C31.3568 22.5401 31.2059 22.3892 31.0197 22.3892Z" fill="#CDE1FF"/>
<path d="M38.7306 22.3892H34.0246C33.8384 22.3892 33.6875 22.5401 33.6875 22.7262V27.431C33.6875 27.6172 33.8384 27.7681 34.0246 27.7681H38.7306C38.9168 27.7681 39.0678 27.6172 39.0678 27.431V22.7262C39.0678 22.5401 38.9168 22.3892 38.7306 22.3892Z" fill="#CDE1FF"/>
<path d="M16.1369 29.5586H11.4309C11.2447 29.5586 11.0938 29.7095 11.0938 29.8956V34.6004C11.0938 34.7866 11.2447 34.9375 11.4309 34.9375H16.1369C16.3231 34.9375 16.474 34.7866 16.474 34.6004V29.8956C16.474 29.7095 16.3231 29.5586 16.1369 29.5586Z" fill="#CDE1FF"/>
<path d="M23.8478 29.5586H19.1418C18.9556 29.5586 18.8047 29.7095 18.8047 29.8956V34.6004C18.8047 34.7866 18.9556 34.9375 19.1418 34.9375H23.8478C24.034 34.9375 24.185 34.7866 24.185 34.6004V29.8956C24.185 29.7095 24.034 29.5586 23.8478 29.5586Z" fill="#CDE1FF"/>
<path d="M31.0197 29.5586H26.3137C26.1275 29.5586 25.9766 29.7095 25.9766 29.8956V34.6004C25.9766 34.7866 26.1275 34.9375 26.3137 34.9375H31.0197C31.2059 34.9375 31.3568 34.7866 31.3568 34.6004V29.8956C31.3568 29.7095 31.2059 29.5586 31.0197 29.5586Z" fill="#CDE1FF"/>
<path d="M38.7306 29.5586H34.0246C33.8384 29.5586 33.6875 29.7095 33.6875 29.8956V34.6004C33.6875 34.7866 33.8384 34.9375 34.0246 34.9375H38.7306C38.9168 34.9375 39.0678 34.7866 39.0678 34.6004V29.8956C39.0678 29.7095 38.9168 29.5586 38.7306 29.5586Z" fill="#FAA8B7"/>
</svg>
