<svg aria-hidden="true" style="position: absolute; width: 0; height: 0; overflow: hidden;" version="1.1" xmlns="http://www.w3.org/2000/svg" xmlns:xlink="http://www.w3.org/1999/xlink">
<defs>
<symbol id="icon-logo" viewBox="0 0 123 32">
      <path fill="#7872b9" d="M120.67 12.695c.476 0 .941.144 1.336.414s.704.653.886 1.102a2.5 2.5 0 0 1-.521 2.675 2.387 2.387 0 0 1-1.231.672c-.467.095-.95.046-1.39-.14s-.815-.5-1.079-.904a2.493 2.493 0 0 1 .299-3.1 2.379 2.379 0 0 1 1.701-.719z" style="fill:var(--color1, #7872b9)"/>
      <path fill="#7872b9" d="M118.372 18.394h4.608a15.202 15.202 0 0 1-1.632 5.901 9.825 9.825 0 0 1-3.117 3.769 4.341 4.341 0 0 1-2.297.775 3.097 3.097 0 0 1-1.603-.419c-1.471-.924-2.358-2.984-2.358-4.669V21.258c-.024-1.04.085-2.123-.439-3.056-.174-.338-.433-.623-.751-.826s-.681-.317-1.055-.329h-.198c-1.042.144-1.712 1.136-1.886 2.122-.06.335-.082.676-.066 1.015v7.826h-3.853v-7.45c.024-.463 0-.928-.071-1.386-.222-1.068-1.004-2.122-2.16-2.122h-.123c-.448.078-.865.287-1.2.601s-.573.721-.687 1.17a6.83 6.83 0 0 0-.198 2.098v7.162h-3.881V13.447h3.843v3.393l.472-.991c.717-1.531 2.099-2.743 3.825-2.743 1.924 0 3.396 1.492 4.032 3.249l.231.626.226-.626c.641-1.757 2.113-3.249 4.032-3.249.556.021 1.102.153 1.607.39s.959.574 1.336.991a4.946 4.946 0 0 1 1.358 3.369v4.51c0 .421.062.84.184 1.242.245.823.769 1.636 1.844 1.627v-6.839h-.024zm-67.051 3.258a5.283 5.283 0 0 1-1.179-2.055 8.673 8.673 0 0 1-.424-2.82v-3.282h4.193v3.047c.038 3.634 3.532 3.653 3.603 0v-3.056h3.858v3.282c0 1.988-.528 3.624-1.514 4.774-1.99 2.325-6.602 2.151-8.536.101v.01zm34.12 7.22c-.824.038-1.647-.093-2.422-.384s-1.484-.736-2.087-1.311a5.451 5.451 0 0 1-1.269-2.06 8.072 8.072 0 0 1-.472-2.816v-8.813h4.169v8.577c0 1.121.203 1.882.674 2.368a1.818 1.818 0 0 0 1.415.534c.299.018.597-.037.871-.16s.515-.311.704-.548a3.474 3.474 0 0 0 .575-2.195v-8.577h4.15v8.817c0 1.988-.556 3.629-1.627 4.77a4.918 4.918 0 0 1-1.962 1.314 7.05 7.05 0 0 1-2.712.481h-.009zm-15.379-.66a7.624 7.624 0 0 1-2.914-.553 6.586 6.586 0 0 1-2.268-1.535 6.85 6.85 0 0 1-1.476-2.406 8.953 8.953 0 0 1 0-6.137c.321-.887.819-1.696 1.464-2.375s1.421-1.213 2.28-1.567a7.95 7.95 0 0 1 5.829 0c.859.355 1.635.888 2.28 1.567s1.144 1.488 1.464 2.375a8.953 8.953 0 0 1 0 6.137 6.725 6.725 0 0 1-1.476 2.368 6.659 6.659 0 0 1-2.268 1.555 7.567 7.567 0 0 1-2.914.553v.019zm-.104-10.819c-.405-.006-.807.077-1.178.243s-.703.411-.973.72c-.548.666-.849 1.508-.849 2.378s.301 1.712.849 2.378c.271.307.603.551.974.717s.772.25 1.177.246c.409.011.814-.07 1.189-.236s.709-.414.98-.727c.548-.663.849-1.503.849-2.37s-.301-1.707-.849-2.37c-.269-.31-.601-.557-.972-.725s-.773-.252-1.179-.247l-.019-.005z" style="fill:var(--color1, #7872b9)"/>
      <path fill="#7872b9" d="M57.603 20.439H53.76v7.638h3.843v-7.638zM31.97-.026c.994-.001 1.967.299 2.794.862s1.472 1.364 1.854 2.302c.381.937.481 1.969.288 2.965s-.672 1.91-1.375 2.628c-.703.718-1.599 1.207-2.574 1.405s-1.986.097-2.905-.291-1.704-1.046-2.257-1.89a5.204 5.204 0 0 1-.848-2.851c0-1.36.529-2.664 1.471-3.626S30.637-.025 31.97-.026zM27.65 12.378h8.663c-.302 4.64-2.184 10.858-5.565 14.992-2.212 2.7-4.881 4.712-8.017 4.616a5.12 5.12 0 0 1-.75-.082 6.299 6.299 0 0 1-4.013-2.613c-1.618-2.161-1.886-3.884-2.358-5.905-.943-4.38-5.338-4.476-6.602-.717a9.698 9.698 0 0 0-.264 2.965v6.363H.001v-6.854c.047-7.648 5.4-13.958 13.063-13.476 4.636.294 8.559 3.542 10.337 7.903.66 1.617.707 3.504 1.919 4.746.3.318.663.569 1.064.735s.832.244 1.265.228V12.38zM12.205-.006c.995 0 1.967.301 2.793.865s1.471 1.366 1.852 2.303c.38.938.48 1.97.285 2.965s-.674 1.91-1.377 2.627c-.704.717-1.6 1.206-2.575 1.403s-1.986.095-2.905-.294-1.703-1.047-2.255-1.892a5.204 5.204 0 0 1-.845-2.852c0-.674.13-1.34.383-1.963s.623-1.187 1.09-1.664c.467-.476 1.021-.854 1.631-1.111s1.264-.389 1.923-.389z" style="fill:var(--color1, #7872b9)"/>
    </symbol>
    <symbol id="icon-menu" viewBox="0 0 44 32">
      <path fill="#7872b9" d="M2.69 1.284c-.766.173-1.339.406-1.656.711-1.743 1.677 2.503 3.473 4.92 3.378 5.185-.204 13.054-.204 14.296-.204 2.007 0 14.962-1.264 16.225-1.264 1.01 0 5.001-.377 6.395-1.908.863-.002 1.524-2.493-1.066-1.908C29.101 2.957 15.391-1.589 2.689 1.284zM40.457 14.296c1.014.129 1.767.361 2.145.73 1.742 1.701-2.538 3.525-4.97 3.429-5.191-.205-13.025-.205-14.265-.205-2.009 0-14.866-.818-16.13-.818-1.011 0-5.096 0-6.552-1.477-.728-.738-1.456-2.863 1.106-2.864 12.925-.001 25.844-.419 38.666 1.206zM21.216 26.386c-6.67 0-18.185-.812-20.211 1.399-1.668 1.82 2.713 3.703 5.172 3.472 5.021-.471 12.284-.861 13.46-.861h14.31c.984 0 6.364 0 8.486-.802.839-.003 2.829-2.406-1.414-3.208-2.428-.459-13.381 0-19.802 0z" style="fill:var(--color1, #7872b9)"/>
    </symbol>
    <symbol id="icon-support-chat" viewBox="0 0 32 32">
      <path fill="#cde1ff" d="M19.398 2.925c7.252 0 12.237 8.938 12.237 16.191s-7.534 11.856-14.782 11.856c-7.247 0-11.728-6.901-11.728-14.15S12.15 2.924 19.398 2.924z" style="fill:var(--color1, #cde1ff)"/>
      <path fill="#b0c8eb" d="M20.91 3.062c3.593.635 6.521 3.473 8.406 7.057a6.435 6.435 0 0 1-2.051 3.866c1.431 3.715.685 8.257-1.799 11.09-4.233 4.864-14.615 3.13-15.089 2.949l-.504.323c-3.024-2.667-4.758-7.022-4.758-11.519a13.016 13.016 0 0 1 2.666-7.627c2.596-1.351 5.826-1.86 8.946-1.679a6.45 6.45 0 0 1 4.183-4.461z" style="fill:var(--color2, #b0c8eb)"/>
      <path fill="#ffcf70" d="M4.572 24.354c-.222 1.19-1.169 3.529.363 3.529 1.104 0 1.94-.781 3.246-1.593.454.176 10.861 1.911 15.089-2.949s3.407-14.745-4.753-16.917C10.877 4.408.102 6.777.248 16.425c.045 3.181 1.366 5.938 3.165 7.299.354.264.745.476 1.159.63z" style="fill:var(--color3, #ffcf70)"/>
      <path fill="#fff" d="M13.325 12.11H6.032a.514.514 0 0 0-.514.514v1.084c0 .284.23.514.514.514h7.293c.284 0 .514-.23.514-.514v-1.084a.514.514 0 0 0-.514-.514zM20.008 15.745H6.033a.514.514 0 0 0-.514.514v1.084c0 .284.23.514.514.514h13.975c.284 0 .514-.23.514-.514v-1.084a.514.514 0 0 0-.514-.514zM20.008 19.379H6.033a.514.514 0 0 0-.514.514v1.084c0 .284.23.514.514.514h13.975c.284 0 .514-.23.514-.514v-1.084a.514.514 0 0 0-.514-.514z" style="fill:var(--color4, #fff)"/>
      <path fill="#faa8b7" d="M20.738 13.879a6.447 6.447 0 1 0-6.45-6.447 6.461 6.461 0 0 0 6.451 6.447z" style="fill:var(--color5, #faa8b7)"/>
      <path fill="#fff" d="M21.388 4.952a15.198 15.198 0 0 0-.096 2.394c.012.775.11 1.546.292 2.299 0 .071.035.146.055.222.018.073.031.147.04.222a.308.308 0 0 1-.167.292.973.973 0 0 1-.378.096 1.797 1.797 0 0 1-.433-.035.83.83 0 0 1-.302-.101.654.654 0 0 1-.242-.318 3.001 3.001 0 0 1-.131-.413 6.47 6.47 0 0 1-.141-1.008 16.348 16.348 0 0 1-.06-1.235 6.696 6.696 0 0 1 0-.776 2.383 2.383 0 0 1-.958-.126c-.504-.247-.086-.701.166-.917a56.482 56.482 0 0 1 1.285-1.079.83.83 0 0 1 .317-.081c.111-.01.222-.01.333 0a.59.59 0 0 1 .333.131.511.511 0 0 1 .086.434z" style="fill:var(--color4, #fff)"/>
    </symbol>
    <symbol id="icon-cross" viewBox="0 0 32 32">
      <path fill="#7872b9" d="M7.129 5.028c-.507-.283-.953-.428-1.314-.394-1.926.177-.626 3.83.798 5.139 2.788 2.562 6.498 6.271 7.11 6.883 1.041 1.041 8.578 6.94 9.233 7.594.524.524 2.837 2.349 4.553 2.079.449.446 2.406-.825.684-1.789C19.863 19.877 15.467 9.677 7.13 5.028z" style="fill:var(--color1, #7872b9)"/>
      <path fill="#7872b9" d="M26.974 7.128c.283-.507.428-.953.394-1.314-.177-1.926-3.83-.626-5.139.798-2.561 2.788-6.271 6.498-6.883 7.109-1.041 1.041-6.94 8.578-7.594 9.233-.524.524-2.349 2.837-2.079 4.553-.446.449.825 2.406 1.789.684 4.663-8.33 14.863-12.726 19.512-21.063z" style="fill:var(--color1, #7872b9)"/>
    </symbol>
    <symbol id="icon-vk" viewBox="0 0 32 32">
      <path fill="#d7c3e6" d="M32 16c0 8.837-7.163 16-16 16S0 24.837 0 16 7.163 0 16 0s16 7.163 16 16z" style="fill:var(--color2, #d7c3e6)"/>
      <path fill="#fff" d="M15.368 23.146h1.291s.39-.045.589-.267c.183-.205.177-.589.177-.589s-.025-1.8.779-2.064c.793-.261 1.811 1.739 2.889 2.508.816.582 1.436.454 1.436.454l2.885-.042s1.509-.097.793-1.329c-.059-.101-.417-.912-2.145-2.578-1.809-1.744-1.566-1.462.612-4.478 1.327-1.837 1.857-2.958 1.692-3.439-.158-.458-1.134-.337-1.134-.337l-3.248.021s-.241-.034-.419.077c-.175.108-.287.362-.287.362s-.514 1.421-1.2 2.63c-1.446 2.551-2.025 2.686-2.261 2.527-.55-.369-.413-1.483-.413-2.274 0-2.472.361-3.503-.703-3.77-.353-.088-.613-.147-1.516-.157-1.159-.012-2.14.004-2.695.286-.369.188-.655.607-.481.631.215.03.701.136.958.501.333.47.321 1.527.321 1.527s.191 2.91-.447 3.271c-.438.248-1.038-.258-2.328-2.572-.66-1.185-1.159-2.496-1.159-2.496s-.096-.245-.268-.376a1.306 1.306 0 0 0-.499-.209l-3.086.021s-.463.013-.633.223c-.151.186-.012.571-.012.571s2.416 5.872 5.152 8.831c2.509 2.713 5.358 2.535 5.358 2.535z" style="fill:var(--color3, #fff)"/>
    </symbol>
    <symbol id="icon-telegram" viewBox="0 0 32 32">
      <path fill="#d7c3e6" d="M32 16c0 8.837-7.163 16-16 16S0 24.837 0 16 7.163 0 16 0s16 7.163 16 16z" style="fill:var(--color2, #d7c3e6)"/>
      <path fill="#fff" d="M6.722 15.821c5.865-2.58 13.455-5.726 14.503-6.161 2.748-1.14 3.592-.921 3.171 1.602-.302 1.814-1.173 7.82-1.868 11.558-.412 2.217-1.337 2.479-2.79 1.52-.699-.462-4.228-2.795-4.993-3.343-.699-.499-1.663-1.1-.454-2.283.43-.421 3.251-3.115 5.448-5.211.288-.275-.074-.728-.406-.507-2.962 1.964-7.069 4.69-7.591 5.046-.79.536-1.548.782-2.909.391-1.029-.295-2.033-.648-2.424-.782-1.506-.517-1.148-1.187.314-1.83z" style="fill:var(--color3, #fff)"/>
    </symbol>
    <symbol id="icon-dzen" viewBox="0 0 32 32">
      <path fill="#d7c3e6" d="M32 16c0 8.837-7.163 16-16 16S0 24.837 0 16 7.163 0 16 0s16 7.163 16 16z" style="fill:var(--color2, #d7c3e6)"/>
      <path fill="#fff" d="M32 16.171v-.343c-7.086-.229-10.32-.4-12.914-2.914C16.572 10.32 16.389 7.085 16.172 0h-.343c-.229 7.086-.4 10.32-2.914 12.914-2.594 2.514-5.829 2.697-12.914 2.914v.343c7.086.229 10.32.4 12.914 2.914 2.514 2.594 2.697 5.829 2.914 12.914h.343c.229-7.086.4-10.32 2.914-12.914 2.594-2.514 5.829-2.697 12.914-2.914z" style="fill:var(--color3, #fff)"/>
    </symbol>
    <symbol id="icon-noun-arrow" viewBox="0 0 25 32">
      <path fill="#facd6e" d="M13.197 3.377c.109-.123.268-.158.391-.089 9.081 5.035 4.178 18.248-4.149 21.061 1.293.091 2.348.296 2.655.867.078 1.659-1.514 1.543-4.596-.053.15-1.581.44-5.718 2.032-4.436.168.796-.123 1.746-.652 2.809 10.217-6.138 10.321-14.762 4.337-19.502-.179-.142-.191-.462-.018-.656z" style="fill:var(--color1, #facd6e)"/>
    </symbol>
    <symbol id="icon-1" viewBox="0 0 16 32">
      <path fill="#7872b9" d="M14.463 3.003a79.43 79.43 0 0 0-.502 12.564c.065 4.065.579 8.11 1.534 12.061 0 .37.185.767.291 1.164.094.383.164.772.212 1.164a1.615 1.615 0 0 1-.873 1.534c-.62.3-1.295.471-1.983.503a9.383 9.383 0 0 1-2.274-.185 4.348 4.348 0 0 1-1.586-.529 3.435 3.435 0 0 1-1.269-1.666 15.655 15.655 0 0 1-.687-2.169 34.051 34.051 0 0 1-.74-5.29 84.912 84.912 0 0 1-.317-6.48 34.591 34.591 0 0 1 0-4.073 12.43 12.43 0 0 1-5.024-.661c-2.644-1.296-.449-3.677.873-4.814C4.445 4.116 8.702.545 8.86.466a4.287 4.287 0 0 1 1.666-.423 9.418 9.418 0 0 1 1.745 0 3.089 3.089 0 0 1 1.745.688 2.641 2.641 0 0 1 .449 2.274z" style="fill:var(--color1, #7872b9)"/>
    </symbol>
    <symbol id="icon-2" viewBox="0 0 28 32">
      <path fill="#7872b9" d="M28.102 26.412c-.087-.876-.24-1.606-.461-2.189a1.737 1.737 0 0 0-.154-.268.462.462 0 0 0-.141-.189l-.029-.022-.156-.133a.583.583 0 0 0-.219-.04l-.021-.002a.899.899 0 0 0-.213.019l-.016.003a.96.96 0 0 0-.21.066l-.243.092c-1.21.454-2.327.819-3.352 1.096-1.079.275-2.297.467-3.652.578-2.214.434-3.8.687-4.757.759s-1.911.107-2.864.106c-1.003.009-1.758-.021-2.264-.087-1.042-.11-1.522-.524-1.439-1.241.1-.72.363-1.516.788-2.388l.061-.112a8.57 8.57 0 0 1 1.233-1.669 13.66 13.66 0 0 1 1.746-1.326 22.5 22.5 0 0 1 1.976-1.073c.47-.232 1.816-.737 4.039-1.514.956-.468 1.665-.843 2.125-1.128a10.873 10.873 0 0 0 1.936-1.443c.083-.076.165-.153.245-.231a9.992 9.992 0 0 0 1.419-1.701 7.797 7.797 0 0 0 1.179-2.866c.432-2.312.118-4.016-.943-5.112-1.047-1.117-2.518-2.144-4.414-3.084A13.652 13.652 0 0 0 15.387.132a14.92 14.92 0 0 0-4.097.014l-.261.041a19.903 19.903 0 0 0-3.905 1.065l-.197.085c-.975.431-1.778.916-2.409 1.456-.259.228-.489.47-.69.723-.017.003-.022.022-.016.057l-.006.002a.08.08 0 0 0-.04.034l-.026.005-.046.036a.21.21 0 0 0-.012.083c-.414.545-.723 1.278-.928 2.198-.208.903-.026 1.624.547 2.164.003.017.015.033.035.047l.005.026.026-.005.009.052.026-.005c.222.156.426.262.612.317.487.16 1.595-.003 3.324-.489a168.48 168.48 0 0 1 3.321-.948c.557-.141 1.099-.26 1.628-.36l.109-.013a5.239 5.239 0 0 1 1.452.017c.047.009.093.019.137.031.671.168 1.103.563 1.297 1.184.204.645.083 1.253-.361 1.822a4.892 4.892 0 0 1-.704.711c-.848.709-2.128 1.413-3.841 2.113-2.287.915-3.947 1.686-4.981 2.312a14.293 14.293 0 0 0-2.222 1.767A7.274 7.274 0 0 0 1.6 18.966C.929 20.531.424 22.632.085 25.268c-.325 2.616.274 4.527 1.795 5.734.705.587 2.271.914 4.698.979a92.767 92.767 0 0 0 8.313-.234c2.593-.194 5.053-.442 7.379-.744 2.481-.322 4.147-.572 4.996-.75l.026-.005c-.006-.035.008-.055.042-.062l.042-.062c-.003-.017.004-.028.021-.031l.046-.036.003-.004c.013-.018.028-.029.044-.032l-.009-.052.047-.036c.24-.333.396-.641.469-.925.164-.66.204-1.468.121-2.424l-.016-.177z" style="fill:var(--color1, #7872b9)"/>
    </symbol>
    <symbol id="icon-3" viewBox="0 0 29 32">
      <path fill="#7872b9" d="M1.904 3.852C1.244 4.439.787 5.19.487 5.965c-.858 2.215.201 5.351 2.576 5.291.262-.007.536-.054.819-.152 2.307-.806 1.978-2.417 2.472-2.901 1.472-1.439 3.543-2.237 5.594-2.416 1.864-.163 4.12.082 5.448 1.288 1.846 1.676 1.428 3.277.989 3.868-.494.859-1.978 2.643-3.955 2.901s-2.802.645-2.967.806c-.275.161-.659.741 0 1.773s2.142.967 2.802.806c2.373-.129 4.065 1.128 4.615 1.773.659.645 1.648 2.32.33 3.868s-4.175 2.471-5.439 2.739c-2.769.773-4.01.107-4.285-.322-.791-1.547-1.758-2.041-2.142-2.095-.385-.107-1.516-.097-2.967.806s-1.813 2.095-1.813 2.578c-.055.698.429 2.482 2.802 4.029s7.252 1.504 9.394 1.289c3.692-.387 7.032-2.525 8.24-3.545 1.044-.698 3.263-2.868 3.791-5.962s-.989-5.264-1.813-5.962c2.547-1.868 4.325-4.852 3.479-7.895a10.356 10.356 0 0 0-.677-1.773c-1.45-2.965-5.329-4.995-7.087-5.64C15.419-.817 9.816.204 7.673.956c-1.044.269-3.757 1.113-5.768 2.901z" style="fill:var(--color1, #7872b9)"/>
    </symbol>
    <symbol id="icon-4" viewBox="0 0 27 32">
      <path fill="#7872b9" d="M18.139 31.998c-.528-.034-1.021-1.408-1.479-4.122-1.672.12-3.397.155-5.175.103-1.76-.069-3.336-.223-4.726-.464l-.343-.052a4.264 4.264 0 0 0-.317-.077 5.346 5.346 0 0 1-1.426-.232c-.51-.137-.95-.464-1.32-.979-.493-.635-.933-1.503-1.32-2.602-.458-1.219-.863-2.825-1.215-4.818-.352-2.009-.572-3.401-.66-4.174S.017 12.383 0 10.304C0 8.226.132 6.5.396 5.126c.106-.704.29-1.434.554-2.19a3.686 3.686 0 0 1 1.399-1.829c.352-.24.968-.481 1.848-.721C5.095.146 5.737.017 6.124 0c.405-.017.968.094 1.69.335.722.223 1.109.678 1.162 1.365.018.378-.018.773-.106 1.185-.088.395-.167.773-.238 1.134-.616 2.971-.915 5.582-.898 7.832.035 2.25.396 5.393 1.083 9.429 1.919.017 4.119-.086 6.601-.309-.334-5.582-.502-8.562-.502-8.94-.035-.996.651-1.529 2.059-1.597 1.426-.069 2.403.077 2.931.438.493.292 1.127 3.452 1.901 9.48a18.47 18.47 0 0 0 1.267-.464c.299-.103.616-.215.951-.335a3.978 3.978 0 0 1 1.03-.258c1.25-.137 1.857.541 1.822 2.035-.018 1.477-.185 2.551-.502 3.22-.299.601-.766 1.073-1.399 1.417s-1.25.618-1.848.824a3.315 3.315 0 0 0-.238.103c-.07.017-.15.034-.238.052 0 1.357-.07 2.207-.211 2.55-.141.326-.29.644-.449.953-.088.189-.396.404-.924.644-.51.24-.854.412-1.03.515-.739.275-1.373.404-1.901.386z" style="fill:var(--color1, #7872b9)"/>
    </symbol>
    <symbol id="icon-spot1" viewBox="0 0 35 32">
      <path fill="#ebf5ff" d="M25.058.778c9.094 2.729 11.543 14.507 8.458 22.542S19.018 33.627 9.921 30.898C.823 28.169-1.853 18.845 1.219 10.805S15.96-1.951 25.058.778z" style="fill:var(--color2, #ebf5ff)"/>
    </symbol>
    <symbol id="icon-spot2" viewBox="0 0 36 32">
      <path fill="#ebf5ff" d="M25.615.778c9.296 2.729 11.8 14.507 8.646 22.542s-14.82 10.307-24.12 7.578-12.035-12.053-8.895-20.093S16.315-1.951 25.615.778z" style="fill:var(--color2, #ebf5ff)"/>
    </symbol>
    <symbol id="icon-spot3" viewBox="0 0 31 32">
      <path fill="#ebf5ff" d="M15.385 32c8.497 0 15.385-7.163 15.385-16S23.882 0 15.385 0 0 7.163 0 16s6.888 16 15.385 16z" style="fill:var(--color2, #ebf5ff)"/>
    </symbol>
    <symbol id="icon-spot4" viewBox="0 0 35 32">
      <path fill="#ebf5ff" d="M25.058.778c9.094 2.729 11.543 14.507 8.458 22.542S19.018 33.627 9.921 30.898C.823 28.169-1.853 18.845 1.219 10.805S15.96-1.951 25.058.778z" style="fill:var(--color2, #ebf5ff)"/>
    </symbol>
    <symbol id="icon-calendar" viewBox="0 0 32 32">
      <path fill="#b0c8eb" d="M16.498 6.729c4.495 0 8.226 2.804 10.618 6.534v10.116c0 6.481-.378 5.672-6.936 5.946-3.556.148-8.276.301-11.688 0-2.284-.216-3.713-.607-4.369-1.402-.836-1.025-.423-10.507-.423-12.426 0-1.642.488-3.282 1.707-4.381a17.1 17.1 0 0 1 11.09-4.387z" style="fill:var(--color1, #b0c8eb)"/>
      <path fill="#fff" d="M7.898 4.936c3.879-.058 13.702-.409 18.332.274 1.403.207 1.722 1.285 1.722 2.279v14.444c0 6.481-.378 5.672-6.936 5.946-3.556.148-8.276.301-11.71 0-2.279-.216-3.709-.607-4.365-1.402-.836-1.025-.423-10.507-.423-12.426 0-1.546-.234-6.161.108-7.37.396-1.425 1.825-1.726 3.273-1.744z" style="fill:var(--color2, #fff)"/>
      <path fill="#faa8b7" d="M7.899 4.936c3.879-.058 13.702-.409 18.332.274 1.403.207 1.722 1.285 1.722 2.279v4.445a347.97 347.97 0 0 0-23.474 0c-.049-1.955-.09-4.445.148-5.285.396-1.393 1.825-1.694 3.273-1.712z" style="fill:var(--color3, #faa8b7)"/>
      <path fill="#db8897" d="M10.119 9.129a2.033 2.033 0 0 0 1.993-2.428 2.029 2.029 0 0 0-2.77-1.48 2.034 2.034 0 0 0-1.254 1.877 2.039 2.039 0 0 0 2.031 2.031z" style="fill:var(--color4, #db8897)"/>
      <path fill="#6b66a6" d="M8.722 3.48c-.355.665-.04 3.523 0 3.721a1.498 1.498 0 0 0 1.075.989 1.322 1.322 0 0 0 1.587-.822c.252-.975.45-3.429-.225-4.216-.796-.939-1.879-.71-2.436.328z" style="fill:var(--color5, #6b66a6)"/>
      <path fill="#db8897" d="M22.262 9.129a2.033 2.033 0 0 0 1.993-2.428 2.029 2.029 0 0 0-2.77-1.48 2.034 2.034 0 0 0-1.254 1.877 2.039 2.039 0 0 0 2.031 2.031z" style="fill:var(--color4, #db8897)"/>
      <path fill="#6b66a6" d="M20.94 3.48c-.355.665-.04 3.523 0 3.721a1.522 1.522 0 0 0 1.075.989 1.313 1.313 0 0 0 1.587-.822c.252-.975.45-3.429-.22-4.216-.8-.939-1.879-.71-2.441.328z" style="fill:var(--color5, #6b66a6)"/>
      <path fill="#cde1ff" d="M10.328 14.329H7.316a.216.216 0 0 0-.216.216v3.011c0 .119.097.216.216.216h3.012a.216.216 0 0 0 .216-.216v-3.011a.216.216 0 0 0-.216-.216zM15.263 14.329h-3.012a.216.216 0 0 0-.216.216v3.011c0 .119.097.216.216.216h3.012a.216.216 0 0 0 .216-.216v-3.011a.216.216 0 0 0-.216-.216zM19.853 14.329h-3.012a.216.216 0 0 0-.216.216v3.011c0 .119.097.216.216.216h3.012a.216.216 0 0 0 .216-.216v-3.011a.216.216 0 0 0-.216-.216zM24.788 14.329h-3.012a.216.216 0 0 0-.216.216v3.011c0 .119.097.216.216.216h3.012a.216.216 0 0 0 .216-.216v-3.011a.216.216 0 0 0-.216-.216zM10.328 18.918H7.316a.216.216 0 0 0-.216.216v3.011c0 .119.097.216.216.216h3.012a.216.216 0 0 0 .216-.216v-3.011a.216.216 0 0 0-.216-.216zM15.263 18.918h-3.012a.216.216 0 0 0-.216.216v3.011c0 .119.097.216.216.216h3.012a.216.216 0 0 0 .216-.216v-3.011a.216.216 0 0 0-.216-.216zM19.853 18.918h-3.012a.216.216 0 0 0-.216.216v3.011c0 .119.097.216.216.216h3.012a.216.216 0 0 0 .216-.216v-3.011a.216.216 0 0 0-.216-.216z" style="fill:var(--color6, #cde1ff)"/>
      <path fill="#faa8b7" d="M24.788 18.918h-3.012a.216.216 0 0 0-.216.216v3.011c0 .119.097.216.216.216h3.012a.216.216 0 0 0 .216-.216v-3.011a.216.216 0 0 0-.216-.216z" style="fill:var(--color3, #faa8b7)"/>
    </symbol>
    <symbol id="icon-minus" viewBox="0 0 32 32">
      <path fill="#facd6e" d="M1.966 15.046c-.558.159-.976.372-1.208.65-1.237 1.487 2.265 3.151 4.198 3.069 3.783-.16 9.029-.16 9.894-.16 1.472 0 10.972-1.159 11.899-1.159.741 0 3.667-.346 4.69-1.749.633-.002 1.118-2.285-.782-1.749-9.187 2.593-19.508-1.511-28.691 1.097z" style="fill:var(--color1, #facd6e)"/>
    </symbol>
    <symbol id="icon-plus" viewBox="0 0 32 32">
      <path fill="#facd6e" d="M1.966 14.512c-.558.159-.976.372-1.208.65-1.237 1.487 2.265 3.151 4.198 3.069 3.783-.16 9.029-.16 9.894-.16 1.472 0 10.972-1.159 11.899-1.159.741 0 3.667-.346 4.69-1.749.633-.002 1.118-2.285-.782-1.749-9.187 2.593-19.508-1.511-28.691 1.097z" style="fill:var(--color1, #facd6e)"/>
      <path fill="#facd6e" d="M17.487 1.966c-.159-.558-.372-.976-.65-1.208-1.487-1.237-3.151 2.265-3.069 4.198.16 3.783.16 9.029.16 9.894 0 1.472 1.159 10.972 1.159 11.899 0 .741.345 3.667 1.749 4.69.002.633 2.285 1.118 1.749-.782-2.593-9.187 1.511-19.508-1.097-28.691z" style="fill:var(--color1, #facd6e)"/>
    </symbol>
    <symbol id="icon-check-mark" viewBox="0 0 32 32">
      <path fill="#facd6e" d="M7.232 22.095c4.92-7.396 11.599-13.033 18.278-18.702.912-.782 1.825-1.597 3.063-1.792 1.401-.228 2.639.098 3.225 1.597.619 1.597-.456 1.987-1.662 2.541-2.867 1.336-4.985 3.747-7.266 5.832-3.812 3.486-7.755 6.842-10.589 11.208-1.108 1.727-2.248 3.421-2.672 5.474-.163.88-.391 1.694-1.368 1.89-1.14.261-1.792-.554-2.346-1.336-1.466-2.216-2.607-4.594-3.584-7.038-.652-1.662-1.173-3.388-1.759-5.083-.228-.619-.261-1.238.326-1.597.749-.489 1.434-.098 1.857.521.619.88 1.14 1.825 1.629 2.77.717 1.369 1.173 2.9 2.867 3.715z" style="fill:var(--color1, #facd6e)"/>
    </symbol>
    <symbol id="icon-vector" viewBox="0 0 789 32">
      <path fill="#ffce70" d="M393.596 10.655c-111.405-2.669-343.932-6.407-382.801 0-32.446 5.348 16.608 21.389 49.491 21.341 97.213-.141 278.146-4.221 302.391-2.655 27.877 1.8 274.128-8.38 297.685-8.38 18.848 0 92.821-5.412 118.832-10.306 12.859-2.419 19.568-15.435-18.176-8.782-42.4 7.474-267.306 6.112-367.423 8.781z" style="fill:var(--color1, #ffce70)"/>
    </symbol>
    <symbol id="icon-specialist" viewBox="0 0 32 32">
      <path fill="#cde1ff" d="M14.634 1.369C6.695 1.369 1.76 9.927 1.233 19.09c-.191 3.542.962 6.241 2.912 8.237 3.078 3.165 8.136 4.53 13.008 4.53 2.291 0 4.914-.864 7.008-1.856 2.353-1.112 4.138-2.389 5.276-4.514C34.108 16.764 26.628 1.37 14.634 1.37z" style="fill:var(--color1, #cde1ff)"/>
      <path fill="#fdd3d4" d="m21.932 7.812-2.514 6.257-.409 4.318s.367 2.068.455 2.213-4.293.729-4.293.729l-2.286-.652.341-2.151-.155-2.741-3.429.595-2.007-8.175L9.507 5.33l3.517.636 3.378-.636 1.097.869 4.433 1.613z" style="fill:var(--color2, #fdd3d4)"/>
      <path fill="#9690d4" d="M15.745 28.614c-.212.677.057.946.734.734.217-.698-.041-.951-.734-.734zm0-1.69.734.052c.362-1.21-1.097-1.2-.734-.052zm.787-3.144-.786-.047-.047.791.786.047.047-.791zm11.56 3.552c-.936 1.034-3.372 2.498-5.105 3.201a18.15 18.15 0 0 1-13.831-.031c-1.665-.683-4.138-2.172-5.022-3.17.3-2.761.864-3.842 2.555-5a22.068 22.068 0 0 1 4.929-2.472c-.253 1.375.347 2.585 1.712 2.627 1.603.052 2.312-1.282 2.783-1.717a9.26 9.26 0 0 0 1.112 1.163c2.312 1.551 4.024-.543 3.315-2.068 1.267.228 4.112 1.841 5.069 2.503 1.665 1.153 2.172 2.255 2.483 4.964z" style="fill:var(--color3, #9690d4)"/>
      <path fill="#faa8b7" d="m25.412 14.405-6.372.77v-2.772c2.55-.248 2.26-3.051 1.288-3.754s-1.578.212-2.441 0c-.864-.212-1.071-.957-.947-1.975-1.35.6-1.903.91-3.709.589-1.252-.228-2.669-.858-3.936-.693-.983.517-.734 5.688.083 7.813.393 1.034.75 1.184 1.159 1.831-1.034.093-1.309.615-2.069.486-.853-2.255-1.965-8.791-.962-12.043 2.39-5.435 8.612-5.605 12.253-3.103.622.426 1.15.975 1.552 1.613 1.034 1.582.052 1.143 1.422 1.841 2.917 1.515 3.434 5.326 2.679 9.396z" style="fill:var(--color4, #faa8b7)"/>
      <path fill="#ffcf70" d="M20.541 19.875c.709 1.51-1.003 3.62-3.315 2.068a9.26 9.26 0 0 1-1.112-1.163c-.471.434-1.179 1.768-2.783 1.717-1.365-.047-1.965-1.251-1.712-2.627.341-.491.724-1.391 1.603-1.639.047 1.091 0 1.246.859 1.639a4.758 4.758 0 0 0 4.07 0c.853-.409.791-.553.859-1.644.392.126.734.372.978.703.275.253.468.583.553.946zM15.746 28.614c.693-.217.952.036.734.734-.678.212-.957-.057-.734-.734zM15.746 26.923c-.362-1.148 1.097-1.158.734.052l-.734-.052zM15.742 23.7l.79.048-.048.79-.79-.048.048-.79z" style="fill:var(--color5, #ffcf70)"/>
      <path fill="#645f9e" d="M7.719 4.714c.345-.38.745-.707 1.184-.972 1.779-1.148 4.846-1.22 7.2-.088a7.31 7.31 0 0 1 2.586 1.97 4.69 4.69 0 0 1 1.138 2.916 14.14 14.14 0 0 1-1.034 4.028c-.269.494-.618.94-1.034 1.319a4.689 4.689 0 0 1-2.586 1.251 2.192 2.192 0 0 0-.238-.429c-.429-.543-.952-.553-1.702-.739a5.635 5.635 0 0 0-1.324-.253 1.425 1.425 0 0 0-.921.455 1.52 1.52 0 0 0 0 2.068c.317.277.713.449 1.133.491.45.114.916.238 1.371.336a6.883 6.883 0 0 0 3.269-.341 6.67 6.67 0 0 0 2.25-1.386c.087-.099.184-.189.29-.269a6.896 6.896 0 0 0 1.241-1.784c.083-.16.238-.155.584-.31.198-.099.381-.226.543-.377.196-.187.322-.435.357-.703.15-.605.341-1.262.46-1.862a1.664 1.664 0 0 0-.46-1.272c-.445-.579-.243 0-.347-.941a6.75 6.75 0 0 0-.584-1.98l-.481-.869A8.654 8.654 0 0 0 18.25 2.6C15.204.578 8.847.501 7.823 4.255c-.057.16-.057.31-.103.46z" style="fill:var(--color6, #645f9e)"/>
    </symbol>
</defs>
</svg>
