<svg width="114" height="47" viewBox="0 0 114 47" fill="none" xmlns="http://www.w3.org/2000/svg">
<path d="M105.874 30.4488C92.3152 40.7641 65.6943 44.7118 48.0186 46.259C46.609 46.2734 46.7716 45.3434 47.9972 45.1453C64.9441 43.6724 90.8292 38.9893 103.744 29.0032C108.84 25.0226 112.151 19.3518 108.924 13.9777C105.697 8.60304 97.9934 6.11839 91.1018 4.88468C89.5485 4.60606 87.9125 4.37536 86.2113 4.18873C55.1692 0.783169 -12.1687 11.8914 9.47999 34.6762C19.7368 42.6067 39.7264 41.0279 54.6242 39.8512C57.1734 39.6499 59.5734 39.4603 61.7502 39.3321C63.4417 39.3726 63.7537 41.3135 61.7845 41.6624C50.4551 44.1918 32.8418 44.7431 21.6472 42.9479C13.7007 41.0465 5.04726 38.2518 2.1418 31.5084C-0.763651 24.765 -0.375289 10.7527 39.9515 3.51487C56.8677 0.478751 83.4238 -1.43393 99.7152 4.25014C113.85 9.1704 117.708 21.3966 105.874 30.4488Z" fill="#FACD6E" stroke="#FACD6E" stroke-width="0.3"/>
</svg>
